<?xml version="1.0" encoding="UTF-8"?>
<svg id="Layer_1" data-name="Layer 1" xmlns="http://www.w3.org/2000/svg" viewBox="0 0 566.93 566.93">
  <defs>
    <style>
      .cls-1 {
        fill: #58b7dd;
      }

      .cls-1, .cls-2, .cls-3 {
        stroke-width: 0px;
      }

      .cls-2 {
        fill: #e1134f;
      }

      .cls-3 {
        fill: #0065a4;
      }
    </style>
  </defs>
  <g>
    <path class="cls-1" d="M166.29,63.68c-.52,1.56-2.84,1.48-4.38,1.21-1.41.6-2.82,1.34-4.01.09-1.59-3.36,3.44-1.49,3.52-3.76.06-1.85-2.45-.66-3.37-.93,0,.14-.17.43.14.42-.8.71-1.58,1.03-2.65.91-3.12.78-.86-2.26-2.53-3.36-1.42.32-2.67,1.05-3.77,2.07.75.84-.69,2.14-.26,3.4-1.25.46-2.52,1.48-3.9.93-1.26.87-2.52,1.75-3.01,2.9l-.56,3.27c.71,1.97,2.33-.19,3.7.21.6.12,1.86-.32,1.68.67l1.08.12-.02.85c-2.03.74-3.43,1.48-5.47,2.37-2.29-.38-1.46-2.8-3.6-3.19-1.18-1.68-.64-4.79-3.27-4.75-1.42,1.58-2.85,3.16-2.59,5.16-2.22,2.89-3.98-.92-6.47.83-.63.44-.49,1.29-.2,1.72-1.07.43-.98,2.55-2.49,1.87v-.28c-.46.29-1.97-.67-1.85.74-.47-.13-1.08-.25-1.23-.83.79-.86,1.58-1.31,1.9-2.16-1.52-1.39.98-2.72-.54-4.24.49-.28.93.26,1.39.4.78-.73,2.48-.76,2.81-1.76,1.41-.45.22-3.12,2.52-2.31.63-.44,1.25-1.17.96-1.73-1.07-.26-2-.23-3.09.49-.64.86.13.85.57,1.41l-.3.29c-.15-.15-.62,0-.62-.28-1.37-.67-2.74-1.23-4.45-.76-2.03,1.46.88,2.52.38,4.09l-1.39.47c-3.23-.64-6.04,1.52-8.78-.4l-.47.86c-1.25.59-.6-.97-1.37-1.39,1.11-1.58,2.66-2.45,4.68-3.2.76,1.11-.66,2.56-.98,3.42,2.3.8,4.64-.94,6.21-2.25.63-1.01-.26-2.4-.73-2.82-1.88,1.45-3.5-2.04-4.49.94l-.6-.69c.8-1.72.06-2.96.08-4.82-.78.16-1.54-.1-1.87.6-.92-.53-2.31.05-3.38-.62-2.48.6-5.71-1.15-7.6,1.13-.76-1.11-1.52-2.65-.88-3.52-.31-.28-.63-.55-.93-.69-1.71,1.04-2.96,1.75-3.75,3.47-.47.29-1.39.45-1.7-.11.63-.58.94-2.28,2.49-2.17-1.23-.97-1.83-1.95-3.22-2.47-1.7.45-1.1,2.13-2.81,2.72-3.09-.9-4.49,1.52-6.66,2.98-.33,2.82-3.24.47-4.79,1.51l-.15-1.42c.32-.28.62-.71,1.09-.86.77-1.29-.47-.99-1.08-1.96-.61-3.11-4.18-3.44-6.18-5.53-.93-.25-1.24.46-1.86.88-1.08,1.02-.31,2.28-.77,3.27-1.54-1.38-3.4,1.05-5.4,1.24-1.85,1.31-2.78,3.16-4.94,4.04-.62,1.56-2.62,1.04-3.69,2.62-.6,2.7-3.66,4.31-5.65,5.89-1.52,1.31.32,2.83,1.1,3.65.65,4.79-3.16,7.95-1.91,12.87.33.84,1.7,1.65,1.39,2.36l1.69.12c.46.41,1.37.54,1.37,1.37-.9,1.01-.73,2.98-.28,4.1-1.82.88-.9,2.85-1.35,4.27.78,1.96,1.85,3.06,4.13,4.01-.15,1.27.93,2.81,2.14,3.34,5.47,1.46-1.35,4.68,1.54,6.88l-1.37.74c1.2,1.67-2.56,1.46-1.65,3.42-.76,1.42-2.41,1.58-3.63,1.32.31.42.61,1.13.02,1.42-.16.42-.31-.15-.62.01v-1.85c-3.03-.79-.74,2.56-2.4,3.43,1.68,2.1-2.07,3.57.04,5.51-1.35.86.32,1.54.01,2.4,3.46,1.35-.88,3.96.94,5.77.59-1.14,1.64-.16,2.24-.89.46,0,1.21.27.91.98-.6,2.12-3.14,1.89-4.64,2.88-2.54-.52.29-2.96-1.07-4.2-.6.56-1.65.57-2.25.02-1.04,1.01-1.04,1.15-1.03,2.56-.6,1.27-.13,3.95-1.62,4.12,1.36,1.24,2.54.37,4.04,1.48,1.51,1.39.32,2.68-.42,4.1.3.27.3.83.9.7,0-.29.29-.44.45-.58,1.65.11,1.95-2.14,3.88-1.61,1.2,1.25,1.95,2.65,2.4,4.2-.59.7-.9,1.99-1.93,2.14.6.7-.45.71-.74,1.29-1.49.16-2.7-.39-3.57-1.22-.16.99.9,3.23-.73,3.81-.46-.27-1.34,1.01-1.79.03-2.06,1.73.18,3.53.78,5.07.45.28,1.49.67,1.93-.04.9,1.69,1.8,2.8,2.85,4.34-.3.56-1.18.44-.88,1.27l-2.23.17c-.15.57-1.47,1.72-.28,2.41,2.94-1.3,2.52,2.09,4.29,2.62,1.35,3.09,1.35,5.91.02,9.04.74.42,1.78,1.66,1.63,2.65,1.62,2.53-1.62,4.83-.57,7.64-.59.98-1.9.72-2.93,1.01-.71,1.42-.71,2.55-1.44,3.98,1.61,2.52,2.62-1.58,4.24-1.46,2.05.96.43,3.09,1.62,4.49-.87,2.84,2.19,3.08,2.33,5.48-1.45,3.13-3.5-.24-5.82.36-2.48,1.85-.72,5.37-1.73,7.78.59,1.12,1.46,1.96,2.48,3.06.72-.28,1.45-1.12,2.19-.3-.15,2.13,1.02,4.51.73,6.77-1.89,1.58-4.48,2.73-5.05,5.29,1.45.96,2.74.1,4.05.23,1.15-2.69,3.46.11,4.9-2.17l.29.28c.88.7-.14,1.7-.72,2.27.72,2.95-3.75,3.57-3.47,6.11-.86,1.13-1.43-.13-2.72.31-1.16,1.84-3.18.02-4.47,1.59.59,3.8-.69,7.62,1.74,10.69,1.01,1.55.16,3.81-.41,5.37-.84,4.67,2.87,7.6,3.73,11.98-2.4,7.91,6.66,7.56,10.34,11.92,1.12,1.55,2.83.4,4.24,1.68,2.27-.59,4.25,1.09,6.36.8,5.93,1.8,10.95-1.91,16.76-1.95,3.95-.04,6.96-.76,10.34-.22,4.82-.04,9.33,1.35,14.04.05,2.8,1.11,5.23-.04,8.07.36,4.06-2.73,7.62,1.22,11.93-.36,4.47-1.45,9.74,1.34,14.21-.54,1.11.56,2.7-.02,3.84-.17,3.2-1.86,6.35,1.08,9.68-.5M163.76,273.25c1.82.27,3.83.25,6.12.25,1.03.85,2.44.98,3.98,1.11,3.67-.62,6.87,1.1,10.29,1.21,1.64,1.58,4.17-.19,6.13.1,2.2-.46,3.63,1.55,6.03.8,3.46-1.33,5.72.82,8.99.08,3.75,1.7,8.11.22,12.09,1.18,5.66-3.36,8.89,4.56,14.75.75,3.22,1.42,6.92.53,10.64.49l.92-.43c5.62.53,11.01.9,17.03-.15,1.72-1.76,3.81-.47,5.75-.94,1.59-.14,1.45-1.88,2.96-2.33.86-3.49,5.49-3.68,6.41-6.59,1.37-2.92,4.25-2.22,5.58-4.99.39-1.31.29-2.47-.74-3.19-3.57-.97-1.58-5.06-2.38-7.95-.16-1.6-.31-3.33-.35-4.79,3.28-5.68-3.47-6.92-4.94-10.38-1.03-1.73.8-3.93,1.03-5.23-2.74-2.01.06-5.66.66-8.43.6-1.02,2.09-2.05,1.41-3.19,1.41-2.34-.26-4.63.91-7.26-2.77-1.99-1-6.51-.84-9.25-1.63-2.6,2.25-3.82,2.5-6.28.65-.29,1.21-.16,1.68-.32l-.37-.42.8-.46c.08-1.3.21-3.05-.76-3.46-1.83-1.42-2.02-3.88-1.36-6.07-.91-1.71,1.46-3.49,2.57-4.8l-1.05-.86c.37-2.32-1.68-4.32-1.54-6.93.43-.88,1.1-1.32.5-2.19,1.3-2.48-.54-4.9-1.24-7.07l.49-2.17c-1.84-2.45.68-5.09,1.69-7.71-.06-1.43-1.82-1.71-2.68-2.84-.35-1.58-.94-3.62.22-5.21.34-1.17,1.7-3.06.35-4.05,1.49-3.66-3.75-2.98-2.12-6.62,0-2.03-4.05-2.1-1.76-4.16,1.86-.32,4.35-.8,5.82-2.43-.23-.42-.67-.55-1.15-.42-2.76,1.22-5.19-.62-7.71-1.01-2.61-.83-4.35,1.66-6.84,2.14-1.74-1.42-3.97-2.67-4.39-4.97-.84-1.29-2.44.19-3.81.2-2,1.34-3.97,2.24-5.98,3.57-1.37.03-.77-2-1.24-2.87,2.24-.91,2.37-3.8,4.62-4.7,1.49-.76,2.03-3.36,4.01-2.38,2.42-.91,5.54-1.55,7.14-4.03-1.73-.56-3.35-1.96-4.51-3.38,1-.6,1.95-1.78,3.29-1.65.31,2.02,2.65-.34,4.49.64.63.85,2.23,1.4,1.66,3.01.81-.31,1.21,1.12,1.97.1.35-1.31-1.36-1.13-1.75-1.55.98-.46,2.08-1.63,2.99-.63,1.64-.76,3.41-1.37,4.7-2.84.22-1.31-.35-2.6-1.51-3-1.39-.84.82-2.33-.28-3.19,2.33-1.2,4.31-3.11,5.26-5.3.79-.15.79.84,1.97.1.94-1.02,1.89-2.2,1.93-3.5,1.62-1.48,1.98-2.79,2.99-4.41.12-.71.06-1.29-.48-1.72.6-2.91-4.07-2.52-2.87-5.29,1.5-3.63-1.35-7.19,1.63-10.43,1.24-2.92-2.27-3.27-1.25-5.9-.96-1.86-4.41-1.64-4.03-4.1-.94.02-1.78-.54-2.69.35-2.02-.97-4.38.24-6.38,1.14-.35-.71-1.8-.39-1.47-1.55-1.35.75-1.75-.83-3.13-.8-5.49.39-11.4,1.54-15.39-1.98-2.34-2.12-4.3,2.97-6.56,1.43-1.57,1.19-3.2-.49-4.65-1.18-2.62-.09-2.89,4.08-5.71,3.13-2.06.35-4.33,1.11-6.22,1.29-2.27-1.55-4.51-2.21-7.26-.15-.94-1.12-2.77-.07-3.46-.77-1.17-.57-2.72-.52-3.35.77.53.71,1.96.4,2.3,1.39.18,2.17-2.26,3.07-3.91,3.98-3.59-.95,2.4-3.09-.32-4.75-.47,0-.8.14-.99.45-2.15-1.4-3.71,1.23-5.91.12-4.17-3.79-5.28,3.84-8.62,4.63-6.11-1.87-3.06,6.11-7.41,7.63-2.55-.52-3.05.94-5.21,1.11-.67-.84-2.42-.39-1.63-1.83,2.68-.49,4.39-3.11,7.03-3.3,2.02-1.34.28-3.61.33-5.33-.92-2.71-4.18-2.5-5.1-5.2-1.65-.55-2.95.05-3.87,1.37-.23.59-1.17.6-1.41.02,1.18-.89-.25-1.86.64-2.88h-.62c-.99.47-1.97.91-2.25,2.08.07.71.89,1.55,1.71,1.25-.5.29-1.18.88-.93,1.31,2.8-.2.33,2.57,1.63,3.27-.73,2.31-2.94,4.09-4.75,4.97l.12,3.02c-.36.43-.83.59-1.3.6-.89-.28-1.86-1.27-1.12-2.28-1.25-2.55-.9-5.73.28-7.9-1.92.62-4.41-.63-4.85,1.96-1.99,1.2-3.4,2.66-5.1,4.13-1.23,1.32.89,1.7,1.82,1.82l.16,2.58c-.57,1.02-1.13,1.89-2.42,2.35M169.85,75.25l-.02.42-.91-.13c.01-.56.62-.29.93-.29Z"/>
    <polygon class="cls-1" points="281.85 178.55 281.5 178.85 282.16 178.55 281.85 178.55"/>
    <path class="cls-1" d="M49.69,180.26c1.17-1.56-1.63-1.82-1.48-3.36-.59-.13-1.03.43-1.46.72.6,1.97-2.65,2.14-1.76,4.27,1.77,1.38,3.83.08,4.7-1.63Z"/>
    <path class="cls-1" d="M272.63,125.46c-.76,1.9,1.76,2.29,3.05,1.82.59-.88,1.31-2.62.19-3.18-1.14.46-2.33.33-3.23,1.35Z"/>
    <path class="cls-1" d="M263.69,127.37c1.75-.62,4.73,1.79,5.09-1.54,1.18-1.76,3.37-1.21,3.94-2.96-1.37-.84-2.27-4-4.96-2.21-.62-.86.47-2.04,1.04-2.91l-1.42-1.56c-1.93.74-3.49,1.94-5.55,2.55l.76,1c-2.89,2.07.56,4.32-.42,6.8l1.54.84ZM267.44,120.65c-.06.43-1.05,1.9-1.49.9.53-.45.63-1.17,1.49-.9Z"/>
    <polygon class="cls-1" points="271.3 116.39 270.06 117.43 271.92 116.23 271.3 116.39"/>
    <path class="cls-1" d="M281.58,107.09c-.18-.86-.57-1.29-1.66-1.13-1.3.46-1.35,1.76-2.09,2.65.44.13,1.1-.17,1.33.26.83-.45,1.99-1.04,2.42-1.78Z"/>
    <path class="cls-1" d="M278.45,105.55c.64-.14.7-.59.76-1.02h-.29c-.2.3-.9.89-.47,1.02Z"/>
    <path class="cls-1" d="M52.01,109.41c-.15-.27-.46-.69-.91-.53-.46.28.01.83-.3,1.12.46,0,1.22.11,1.21-.59Z"/>
    <path class="cls-1" d="M287.16,99.75l-.29-1.01c-.08.45-.29.88-.63,1.03l.92-.02Z"/>
    <path class="cls-1" d="M49.99,101.7c-.62-.28-1.52-.26-2.28.18.31.28.93.84,1.52.67.46-.15.91-.16.76-.85Z"/>
    <path class="cls-1" d="M288.92,82.81c-.96.16-1.72,1.18-2.26,1.63.72-.59,2.36-.34,2.26-1.63Z"/>
    <path class="cls-1" d="M195.48,69.01c.97-.3,2.3-1.05,1.97-2.05-.53-.85-1.35-1.7-2.64-1.24-1.07-.13-1.78.62-1.91,1.63.88.4,1,1.99,2.58,1.66Z"/>
    <path class="cls-1" d="M169.85,67.4l.7-.73-.45-.28c-.14,0-.3.14-.3.14-.05.29-.26.87.05.87Z"/>
    <path class="cls-1" d="M193.83,63.58l.05-.43h-.31s-.03.3-.03.3c.13.14.12.29.29.13Z"/>
    <path class="cls-1" d="M165.85,61.59h-.31c-.69.6-1.21,1.18-1.43,1.76,1.23.11,1.35-1.03,1.74-1.76Z"/>
    <path class="cls-1" d="M141.38,65.03c.16-.42,1.27-1.57.36-2.27-1.09.3-2.3-.39-2.81.91.45.83,1.35,1.39,2.44,1.36Z"/>
    <path class="cls-1" d="M194.87,58.83h-.46c-.04.29.24.57.37.71l.09-.71Z"/>
    <polygon class="cls-1" points="191.1 57.9 190.93 59.34 191.41 57.89 191.1 57.9"/>
    <path class="cls-1" d="M131.69,63.24c1.08-.59.96-1.58.37-2.26l-1.9,1.15c.46.41.91,1.11,1.53,1.1Z"/>
    <path class="cls-1" d="M209.21,55.92l.12-1-.67.44c.12.29.06.73.55.56Z"/>
    <path class="cls-1" d="M145.34,61.41v-.57c-.31.15-.16.42-.17.57h.17Z"/>
    <path class="cls-1" d="M156.85,59.32l-.15-.28c-.16.15-1.11.88-.82,1.29l.97-1.01Z"/>
    <polygon class="cls-1" points="136.12 58.9 136.12 59.19 136.26 59.32 136.12 58.9"/>
    <path class="cls-1" d="M124.22,57.88c-.76-.4-1.08.16-1.41.73.46.42,1.39-.02,1.41-.73Z"/>
    <path class="cls-1" d="M150.29,56.21c.01-.57.03-1.28-.43-1.28-.47.15-.18.58-.33.72.3.43.29.71.76.56Z"/>
    <path class="cls-1" d="M151.22,56.04l.48-.43c.15,0,.3.28.46.42.32-.59-.62-.56-1.07-.55,0,.14-.02.42.13.56Z"/>
    <path class="cls-1" d="M102.41,56.76c2.81-1.46.67-3.69.07-5.36-3.25-.64-2.36,2.73-3.76,4.17.43,1.97,2.31.23,3.69,1.19Z"/>
    <path class="cls-1" d="M49.8,55.59c-.46.58-1.7.74-1.54,1.73.32.28.62.26.94.26,1.22-.31.76-1.29.6-1.99Z"/>
    <path class="cls-1" d="M97.32,55.88l-.32.02v.55c.31,0,.31-.28.32-.57Z"/>
    <path class="cls-1" d="M141.18,55.1c1.39-.72.34-1.42.53-2.55l-.79.73c-1.1.3-.52,1.85.26,1.83Z"/>
    <path class="cls-1" d="M151.44,53.91c-.16.29-1.08.18-.96.74.47.12,1.57-.33.96-.74Z"/>
    <path class="cls-1" d="M95.46,55.22c0,.13-.15.28-.16.43.16,0,.16.13.31.13l-.15-.56Z"/>
    <path class="cls-1" d="M55.99,56.45c-.16-.56-.62-.41-.94-.12.32-.15.62,0,.94.12Z"/>
    <polygon class="cls-1" points="146.19 53.03 145.57 53.17 145.87 53.6 146.19 53.03"/>
    <path class="cls-1" d="M52.26,53.86l-.47-.55c0,.13-.16.14-.16.27.17.29.32.28.63.28Z"/>
    <polygon class="cls-1" points="146.56 51.03 146.89 50.76 146.42 50.76 146.56 51.03"/>
    <path class="cls-1" d="M149.37,50.7c.47-.29-.76-.84-.77-.13.3,0,.62-.16.77.13Z"/>
    <path class="cls-1" d="M140.44,48.05h-.47c-.33.16-.17.3-.17.57.3,0,.47-.42.64-.57Z"/>
    <polygon class="cls-1" points="153.99 46.63 153.21 46.92 153.82 46.9 153.99 46.63"/>
    <path class="cls-1" d="M92.58,48.21v-.7s-.16,0-.16,0c-.3.15-.14.43-.15.56,0,0,.15.13.32.13Z"/>
    <path class="cls-1" d="M147.04,45.35h-.32c-.16.43-.5,1.01-.35,1.43.77-.01.97-1.01.67-1.43Z"/>
    <path class="cls-1" d="M93.37,46.64c-.15.16-.47.29-.49.57h.48v-.57Z"/>
    <path class="cls-2" d="M38.88,109.01c-.44-1.94-.7-3.08-1.04-5.34-1.97-3.38-6.43-6.42-7.17-10.86.21-1.43,4.77-5.7,5.39-4.85,6.8,4.28,8.17,14.14,14.38,19.68.45.9,3.44-1.96,6.13-3.31,0,0-.43-.88-1.02-1.81,3.74-1.83,7.81,1.87,11.98,1.57-.45-1.29-.45-1.28-.63-2.39,1.33,6.14,7.98,6.66,12.58,8.37.64.94.95,1.9,1.27,2.86,4.51.75,7.52,4.07,13.52,4.18,4.76.81,8.95,6.36,14.37,8.99,8.31,6.73,11.78,18.69,23.84,20.29,2.07.26,3.88,2.77,3.18,6.7,10.81-1.02,15.23,10.35,17.96,17.98,1.29,2.71-1.07,6.18-2.96,8.41,6.57,5.04,12.69,11.59,15.52,19.13,4.07,9.4,7.46,19.26,6.22,30.64-.06,1.53,1.67,4.15,3.18,5.42l-1.93,2.29c1.28,6.14,5.78,11.54,4.49,17.16-2.09,7.68-12.13,8.94-20.71,10.2-6.4-7.29-22.04-12.39-17.14-23.48,1.92-3.26-2.1-7.05-3.97-10.32-2.49-2.54,1.11-6.87-4.92-8.02,5.63-5.21,7.51-16.15,1.97-21.37.48-.81,1.35-.47,1.71-1.71-9.58-6.37-12.55-16.45-20.52-23.93-4.47-3.16-6.54-9.7-13.36-12.02-.88.08-1.22-3.55-2.93-4.25l-2.67.3c-3.19-3.23-8.3-4.82-9.26-9.18-1.89-4.22-5.58-5.07-7.77-8.17-3.43-4.84-12.61-4.87-14.75-12.03-.28-.93-2.25-1.01-3.38-1.48l-.94-2.71c-1.17-.45-2.99,2.65-4.11,2.23-7.26-3.6-16.93-4.68-19.48-14.71.78-.54,3.65-1.35,2.99-4.45Z"/>
    <path class="cls-2" d="M34.03,99.42c1.31-.91.66-.45,2.54.22l-2.77-.55.22.33Z"/>
    <path class="cls-2" d="M87.03,118.75c-.6-2.33-.84-4.82-3.02-6.3,2.47.99,2.84,5.55,3.02,6.3Z"/>
    <path class="cls-2" d="M101.73,140.92c-.74.86-.34,1.59-1.49,1.35-.02-.77,2.23-2.64-.08-2.33l1.56.98Z"/>
    <path class="cls-2" d="M99.64,146.7l-.5,2.23c.21-.26.52-1.23.5-2.23Z"/>
    <path class="cls-2" d="M50.36,94.14l.04.65.5-.34c-.16-.12-.31-.22-.54-.31Z"/>
    <path class="cls-2" d="M53.84,96.93l-2.17-3.02c-.29.26-.52.37-.76.54,1.66,1.08.59,2.85,2.94,2.47Z"/>
    <path class="cls-2" d="M50.48,95.96l-.08-1.17c-2.75,1.44-2.91-3.06-6.54-2.61,2.12,2.55,4.55,3.49,6.62,3.78Z"/>
    <path class="cls-2" d="M47.26,97.76l-1.19,1.16c-.76-.5-.48-1.61-.33-2.16l-1.82.13c-1.09,2.07,4.08,3.67,5.36,4.37l-2.02-3.5Z"/>
    <polygon class="cls-2" points="28.59 114.71 28.66 114.69 28.59 114.69 28.59 114.71"/>
    <path class="cls-2" d="M38.06,117.07l.74-3.92c-2.06.15-2.09-2.69-4.44-2.33l-.07.02c.37,4.08,2.64,2.79,3.77,6.23Z"/>
    <path class="cls-2" d="M55.97,101.79c-2.18-.69-3.83-1.2-5.02.85l3.79,2.06c-1.1-2.13.52-1.64,1.23-2.91Z"/>
    <path class="cls-2" d="M57.35,110.08l-1.91-.33.47,1.46c.22-.49.69-.96,1.44-1.13Z"/>
    <path class="cls-2" d="M55.91,111.21c-.23.57-.12,1.2.52,1.57l-.52-1.57Z"/>
    <path class="cls-2" d="M51.5,113.26c.49,2.85,1.18-.23,3.03,1,.9-2.71-2.03-.69-3.03-1Z"/>
    <polygon class="cls-2" points="59.49 116.94 59.53 119.11 60.53 116.43 59.49 116.94"/>
    <path class="cls-2" d="M78.86,111.06c-2.93,1.41.13,2.95-.28,4.35l.28-4.35Z"/>
    <path class="cls-2" d="M59.69,123.78l.21-2.7-.74,1.27c-.48-.19-1.29-.21-1.38-1.46-1.3,2.85,1.17,1.99,1.91,2.89Z"/>
    <line class="cls-2" x1="69.37" y1="120.14" x2="70.55" y2="122.6"/>
    <line class="cls-2" x1="79.5" y1="131.24" x2="81.11" y2="127.88"/>
    <path class="cls-2" d="M88.06,133.96l-2.64-2.12c.64,1.41,1.47,2.02,2.64,2.12Z"/>
    <path class="cls-2" d="M56.61,124.11c.88.21,1.7.33,2.49.45-.97-1.03-1.96-2.02-2.99-2.93.14.91.25,1.85.5,2.48Z"/>
    <path class="cls-2" d="M173.04,238.06c-5.32-3.74-7.27-11.41-9.02-15.62-.84-7.32-8.19-14.94-11.82-22.54l1.12-.27c-.48-6.86-6.21-14.04-9.36-20.6l-1.25,1.01c.29,1.21.91,2.67-1.35,2.64-.04-1.73-.31-4.01.56-4.96l-2.53-.18c.63-1.45,5.61-2.92,2.89-4.88-5.45.91.25-7.68-5.55-4.63,2.89-2.97-1.58-3.65-2.12-4.98l-2.06,2.38c-.07-3.36,2-8.2.56-9.05-2.64-2.81-5.94-6.9-9.7-9.14,2.14-2.96,2.73,3.37,3.88-.98-9.73-2.04-10.59-16.46-20.58-20.19.02.41.45,1.21-.36,1.23.28-3.31-3.42-2.75-4.9-5.94-1.04,2.16,2.03,4.77,2.86,5.99-4.27,3.81.35-1.66-3.81-2.64.03.39.09,1.21-.29,1.63-3.7-1.34.93-3.73-2.02-4.7l.23,2.43c-2.2-1.81-1.21.09-4.51-.74,2.19-2.29,2.22-5.14,1.68-5.91-1.1.94-3.15-1.65-4.38,1.01-.05-7.44-5.07-1.15-5.3-8.14-2.61,1.39-.08,3.34-1.35,5.27-4.17-.32.5-3.42-.25-4.92-1.61.31-6.48-.95-7.41-4.03l-1.11,2c-1.87-3.7-6.71-6.39-6.7-9.84-2.54,2.61-.04,3.44,2.05,4.48-.27,1.79-2.81,1.79-3.61.8.53.25.16,1.66,1.17.87-.63,1.92-1.65.17-2.41.43-3.35-2.22,1.89-.67.83-2.44-1.65.12-4.93-1.59-4.52,1.71-2.94-.99-.03-3.47-1.17-5.19,1.58,2.84,3.96-1.08,4.76,2.07,1-.78,1.11-1.7.66-2.82-2.74-.32-6.76-4.44-7.66-1.41l-.63-2.39-1.9,1.72-.35-.74c.25,3.45,2.11,5.7,2.03,8.79-.28,1.44-1.59.25-2.47.21l.16-2.68c-1.91-1.34-3.02,4.01-5.54,2.19,2.73-2.68-1.77-5.81-3.26-8.67-3.69,5.13-.88,4.51-3.98,8.95-2.06-.67-5.59.09-7.76-2.25,6.12,1.35-2.18-4.72,3.19-5.65-.94-.83-1.96-.23-3.05-.5.02-4.72,2.3-3.25,1.48-7l-1.05,2.99c-1.1-2.62.83-.2-2.18-1.73-.6,1.32-1.79,4.18-3.05,3.05-.12-2.36-1.29-3.94-4.22-4.45-6.25,5.26-.15,5.04-.06,10.71,7.33,2.89,5.35,6.49,12.72,11.55,1.78-1.49,4.01,5.31,6.76,5.07,3.11-4.34-2.57-5.17-3.42-8.7,1-.58,2.02-1.15,2.52-.08l.03-3.6c4.66-.25.93,5.71,4.97,5.36l-1.04.54,2.38-.33-.3-.74c1.33.23,2.5-2.09,4.1-.24l-2.33,1.55c1.62-1.21.65,2.71,2.53,2.26-1.29.94-2.05,2.43-2.6,2.31,1.76,2.29,3.56,3.41,5.31,4.5,7.09.93,12.83,5.23,17.07,10.99,0-.59-.09-1.13-.13-1.39,1.44-.19,1.41,1.43,1.25,3.05.74,1.12,1.45,2.29,2.09,3.5,2.43.98,4.55,1.6,6.9,3.83-.88,1.48-1.39,1.83-1.78,1.71,1.08.4,2,.34,2.14-1.77,1.87.8,1.5,2.78,2.56,3.74-1.46.11-2.89.19-4.34.36.36,1.77,2.54-1.21,3.23.94,2.89,1.05.81-3.12,2.62-4.94l.74,1.05,1.11-3.6c1.58,2.51.73,5.68.25,7.99l-.64-2.2c-3.04,2.64,2.11,2.41,1.21,4.76l-.37.03c2.01,2.08.88-1.96,2.64-.97.11,1.63.23,3.21.26,4.83l1.37-2.33c2.58.26,2.61,5.88,4.15,8.82.71,1.83,3.94,2.3,5.78,3.96.18-.73.08-1.86.91-2.18.88,1.17,2.84,3.67-.05,4.49l2.95.31c.5.56.48,1.31.27,2.02l.63-1.14,2.23,1.46c-.47.31-.94,1.74-1.82.86-.95,3.93,5.77,3.61,6.75,8.18l-1.8-.43c3.13,1.11-.73,3.61,2.13,5.13l1.52-1.52c1.89,1.29,1.29,5.85-.48,6.07,4.72-2.04-.87,1.66,3.72.78l-3.71,3.09c1.71.56,2.95,1.4,4.73-.33-1.04,2.7-.83,4.32,2.44,4.22h.27s-.08.02-.08.02c.51.28.49,2.45,2.15.82,1.69,4.44-3.29,3.93-1.51,7.95l3.28-.96c.31,3.5,4.12,5.8,6.86,7.82l-2.68,1.12c1.2,1.53,2.71-1.12,4.08,1.43-.38.51-1.17,1.08-1.93,1.22.91,2.6.15,6.49.69,10.54-.55.08-1.19-.33-1.52-.53.59,1.65,2.26,4.19,3.62,6.04-3.96,5.54-6.32,12.37-4.84,18.35,7.46,3.97,15.86,6.7,24.11,6.66,5.2-1.63,10.34-7.32,13.85-15.02Z"/>
    <path class="cls-2" d="M164.58,175.88l-.99.33c.97-.35,1.93-1.14,2.34-1.8,1.25.74,1.62,2.74.28,3.75-.76-.89.02-2.23-1.62-2.27Z"/>
    <path class="cls-2" d="M210.89,164.07c-2.87-3.32-9.15-5.89-14.31-6.23l-4.7-5.65c4.14.41,5.98-4.31,8.47-7.17-.06-2.09-4.14.91-2.69-2.91,1.06.42,2.14,1.91,3.17,1.82.92-3.74-4.36-6.54,2.1-10.58l4.17.87c9.02-8.51,16.04-21.43,28.17-25.25-.18-4.2,5.68-6.69,7.84-10.49l1.17,1.81c.04-4.24,5.47-2.26,7.61-3.87l3.1.7c2.46,2.72-5.17,4.68-.73,8.33,5.79.4,5.06-8.45,10.66-6.88,4.13-.97,2.62-3.02,4.48-5.21-.31-2.26-1.66-1.57-2.48-3.97,8.22-5.23,13.1,5.21,20.21,1.34-.41-1.78,4.31-8.33-2.44-8.71l-1.96,3.19-2.77-1.54c2.09-.96,6.15-2.23,4.82-4.39,5.5,6.57,12.65-12.5,10.45,1.32-4.35-.71-5.32.11-6.56,4.09,8.51-2.27,16.76-1.33,23.64-2.98l1.14-4.07c1.03,3.45,4.92,4.9,8.41,5.17,1.24-1.07,3.13-1.17,2.36-2.83.22-2.34-12.45,1.42-7.86-6.13,8.33-.42,17.27,1.41,23.43,6.04-4,1.28-6.62.71-9.64,6.12-11.6,6.9-25.79,7.02-35.3,16.72-1.27-2.2-4.65-1.99-4.63-4.71-1.72-1.26-3.94,1.73-6.07-1.28-7.62,6.9-18.52,9.84-26.39,13.76,5.16,4.38-2.51,6.22-3.21,9.68-3.39-1.34-5.96,1.9-8.3,3.49.33,1.09-.9,2.38.45,3.63,1.29-1.78,2.7-1.01,4.82-1.61,1.82,4.47-3.91,2.2-6.63,3.84l-.11-3.08c-4.32,2.82-14.37.13-15.43,6.78l5.98,1.08c-3.4,5.04-12.93,5.1-12.54,12.13,4.03-1.27,6.69-8.2,10.49-3.35,1.84,2.63-1.54,5.34-4.02,5.68-11.09,1.54-6.56,15.88-18.35,15.3Z"/>
    <path class="cls-2" d="M226.88,162.82c4.97-5.06-3.52-8.99,2.36-13.07,1.5,3.02,5.87,2.87,7.76,1.6.43-2.96,3.46-3.5,4.93-4.79,1.46-.3,3.7,2.97,1.77,4.62-9.25-1.14-8.36,12.02-16.82,11.63Z"/>
    <path class="cls-2" d="M209.55,154.67c2.34-3.15,6.64,3.16,7.96-.76,1.66,3.93-1.44,1.46-3.71,4.08l-.22-3.01-4.03-.31Z"/>
    <path class="cls-2" d="M239.24,141.78c1.54-1.89,7.15-3.48,9.76-.02.47.09,1.26,2.21,1.85.83-2.44,0-7.45,3.11-11.61-.8Z"/>
    <path class="cls-2" d="M220.02,135.26c.59-1.51,1.65-2.52,3.28-4.01-.62,1.54-.71,4.1-3.28,4.01Z"/>
    <path class="cls-2" d="M236.87,133.44c-2.31-2.3,1.2-1.89,1.76-2.29l2,.28c-.68,1.43-1.85,2.73-3.77,2.02Z"/>
    <path class="cls-2" d="M259.28,129.94c3.56-.6-.9,5.25,2.82,3.73l-1.71,1.57-3.34-3.8,2.23-1.5Z"/>
    <path class="cls-2" d="M265.96,131.18c.28-1.43.91-2.32,2.88-2.21l.08,2.03c-.18.96-1.85-.53-2.96.18Z"/>
    <path class="cls-2" d="M256.4,123.66c.88-1.83,1.95.46,3.4.82.19,1.58-4.65.41-3.4-.82Z"/>
    <path class="cls-2" d="M257.69,88.56c.19,4.37-4.04,3.97-6.55,6.64,2.47-2.67,2.75-5.36,6.55-6.64Z"/>
    <path class="cls-2" d="M180.41,252.97c1.18-4.41,6.39-9.06,2.67-15.66-1.73,1.81-3.09,1.35-5.26,4.45-4.9-4.65,2.79-5,3.79-8.04-2.17,2.02-3.43-2.22-3.02-4.58,3.24-3.39,5.25-10.04,7.79-15.4-.84-3.32,6.16-9.09.39-10.93,1.44-3.45,5.72-1.54,8.21-3.14-1.78-10.89,18.36-4.55,16.33-16.03,2.57,2.62,4.55-.99,5.85-1.96,2.34-2.54,7.97-8.41,1.86-11.61-5.17-1.29-2.65,7.42-8.54,7.32-9.86.47,2.22-6.99-2.27-11.11.21,1.48-4.22-1.61-4.73,1.96,2.12-6.79-6.91-2.24-7.58-7.22-7.93,3.62-7.27,3.2-15.98,1.71-1.96,4.68,3.19,6.73,4.73,9.54-.36,5.8-8.32,5.17-9.46,9.73-6.23-8.02-10.08,2.58-12.58,7.28-3.69,5.82,6.25,6.04,2.27,11.91-5.7,1.14-2.01-9.22-8.49-7.28l.15,3.88c2.33,3.59,5.72,7.12,7.11,10.46-.56,1.37-1.37,3.4-2.7,2.85-.23-3.26-3.81-4.01-6.94-1.99.77,1.93.97,2.41,2.03,3.63,11.82-1.31-2.18,5.92,2.05,12.09,3.68,14.03-13.66,1.77-13.16,14.79,9.57-.84,1.91,8.87,4.43,13.54-1.03,3.09-3.71,3.63-7,5.23.72,1.11.57,3.69,2.15,4.45,12.11.82,24.55-3.77,36.43-9.26-.15-.29-.29-.54-.53-.6Z"/>
    <path class="cls-2" d="M146.52,228.21l-4.6,33.32-2.46,19.14,5.03,18.87,14.06,1.96,9.55-6.27,13.05-7.76c1.58-11.29,2.62-25.48,2.62-25.48,0,0-5.02,7.25-4.54-6.01.47-13.26.19-25.63.19-25.63l-5.32-20.66-27.58,18.53Z"/>
    <path class="cls-2" d="M70.09,132.94c-.25,2.57,5.03,11.12-1.47,8.25,2.53,1.03,6.21.89,3.52,5.72,4.09.6.81-6.42,3.82-9.18-2.58,3.46-3.87-3.22-5.87-4.79Z"/>
    <path class="cls-2" d="M79.92,139.69c1.89,1.59,4.14,4.05,5.58,1.7-2.05-.39-3.34-5.92-5.58-1.7Z"/>
    <polygon class="cls-2" points="80.25 154.81 78 149.18 79.06 155.9 80.25 154.81"/>
    <path class="cls-2" d="M91.59,156.51l-7.04-.19,5.7,4.53c4.3-3.2,2.85-5.7.41-8.28.63,1.03,1.04,2.27.93,3.94Z"/>
    <path class="cls-2" d="M85.49,144.68l-2.46,2.14c-.23,1.52,2.99,1.84,5.57,3.57-1.64-1.75-3.14-3.51-3.11-5.71Z"/>
    <path class="cls-2" d="M88.6,150.39l2.06,2.17c-.53-.91-1.24-1.62-2.06-2.17Z"/>
    <path class="cls-2" d="M95.41,164.72l.96.23,1.35-6.32c-2.18.8-2.03,4.82-2.31,6.08Z"/>
    <path class="cls-2" d="M101.03,178.23c.84,4.24,4.96.77,6.46.61-1.03-5.09-3.46-5.13-5.84-7.14,2.38,2.04-.04,4.04-.62,6.53Z"/>
    <path class="cls-2" d="M115.63,187.75c.62-.48.79-2.48,2-3.37-.02-2.81-2.14-2.14-3.24-3.21l1.24,6.57Z"/>
  </g>
  <path class="cls-1" d="M184.46,286.21l.75.71c.95-.72-.22-1.44-.75-.71Z"/>
  <path class="cls-1" d="M277.97,202.22l1.03-.88h-.15c-.46.16-.94.31-.88.88Z"/>
  <path class="cls-1" d="M53.84,183.46c-1.48-.69-2.21-.11-3.55.19-.87,1.42.46,2.25,1.79,2.37.43-.85,2.78-1.31,1.76-2.56Z"/>
  <path class="cls-1" d="M315.5,103.26c.35-.29.43-.73,0-.87-.51.29-1.54.04-1.85.91l.5.7,1.35-.75Z"/>
  <path class="cls-2" d="M198.37,197.86c.35-2.07,3.32-4.07,5.41-2.02l1.7.67c-1.21,1.08-4.78,6.73-7.11,1.34Z"/>
  <path class="cls-2" d="M187.2,191.39c1.74-.98,1.71.6,2.47,1.42l-1.44,1.93c-1.58-.1-1.23-2.26-1.04-3.36Z"/>
  <path class="cls-2" d="M190.21,220.06c-1.78.63-1.39,2.56-.74,3.85l1.56-.04-.81-3.81Z"/>
  <path class="cls-2" d="M201.1,204.17c-3.33-3.65-2.62-.39-7.03.21-2.75,2.62-1.01,7.86-2.85,10.86l1.35,3.07c3.36-3.05,7.93-8.74,8.53-14.14Z"/>
  <path class="cls-2" d="M182.49,189.52c-3.24,1.45-2.24,6.44-3.24,8.26,2.32-2.75,4.78-6.59,6.26-8.56-.76-.86-2.05.03-3.02.3Z"/>
  <path class="cls-3" d="M214.8,241.2c1.07-2.71,1.45-3.19,2.03-3.19.88,0,1.17,1.15,2.03,3,1.56,3.49,15.23,37.55,20.48,50.07,3.11,7.37,5.43,8.44,7.27,9.02,1.27.38,2.53.49,3.4.49.48,0,1.07.19,1.07.67s-.97.69-1.94.69c-1.26,0-7.56,0-13.48-.2-1.66-.09-3.01-.09-3.01-.58,0-.39.2-.39.59-.57.48-.2,1.35-.88.77-2.24l-7.66-18.91c-.19-.39-.29-.49-.78-.49h-19.69c-.39,0-.69.19-.88.67l-4.85,13.2c-.78,2.04-1.27,4.08-1.27,5.53,0,1.65,1.45,2.24,2.91,2.24h.77c.69,0,.88.29.88.67,0,.49-.48.69-1.26.69-2.03,0-6.7-.29-7.66-.29-.88,0-5.14.29-8.65.29-1.07,0-1.65-.2-1.65-.69,0-.37.39-.67.78-.67.57,0,1.85-.11,2.53-.2,3.87-.49,5.53-3.39,7.18-7.57l20.09-51.62ZM224.3,275.55c.38,0,.38-.19.29-.59l-8.44-22.6c-.49-1.27-.98-1.27-1.46,0l-7.96,22.6c-.08.39,0,.59.29.59h17.27Z"/>
  <path class="cls-3" d="M267.58,280.5c0-4.46-.57-6.12-1.84-8.44-.69-1.26-12.23-19.6-15.13-23.96-2.04-3.11-4.08-4.95-5.63-6.02-1.27-.77-2.91-1.16-3.59-1.16-.49,0-.86-.39-.86-.78s.28-.58,1.06-.58c1.65,0,8.04.19,8.44.19.58,0,4.07-.19,7.37-.19.96,0,1.16.19,1.16.58,0,.29-.57.58-1.35.87-.67.29-1.07.68-1.07,1.36,0,1.16.59,2.13,1.17,3.21l15.52,25.71c1.75-3.49,12.42-21.14,13.97-23.87,1.07-1.83,1.46-3.19,1.46-4.26,0-1.17-.39-1.85-1.37-2.14-.77-.19-1.25-.58-1.25-.97,0-.29.48-.49,1.35-.49,2.24,0,5.24.19,5.92.19.59,0,6.7-.19,8.34-.19.59,0,1.07.19,1.07.49,0,.39-.39.87-1.07.87-.96,0-2.62.28-3.98,1.07-1.64.97-2.41,1.84-4.26,4.07-2.81,3.3-14.85,22.71-16.6,26.2-1.45,2.91-1.07,5.53-1.07,8.25v7.08c0,1.35,0,4.85.29,8.24.21,2.43.77,3.98,3.3,4.37,1.16.19,3.11.39,3.88.39.49,0,.68.39.68.67,0,.4-.48.69-1.36.69-4.75,0-10.28-.29-10.77-.29-.39,0-5.82.29-8.34.29-.97,0-1.36-.2-1.36-.69,0-.28.2-.67.68-.67.78,0,1.75-.2,2.52-.39,1.75-.39,2.33-1.94,2.53-4.37.19-3.4.19-6.89.19-8.24v-7.08Z"/>
  <path class="cls-3" d="M322.8,241.2c1.07-2.71,1.45-3.19,2.04-3.19.86,0,1.15,1.15,2.03,3,1.55,3.49,15.23,37.55,20.48,50.07,3.1,7.37,5.42,8.44,7.27,9.02,1.27.38,2.53.49,3.4.49.48,0,1.07.19,1.07.67s-.96.69-1.94.69c-1.26,0-7.56,0-13.48-.2-1.65-.09-3.01-.09-3.01-.58,0-.39.2-.39.58-.57.49-.2,1.37-.88.78-2.24l-7.66-18.91c-.19-.39-.29-.49-.77-.49h-19.69c-.4,0-.69.19-.88.67l-4.85,13.2c-.77,2.04-1.26,4.08-1.26,5.53,0,1.65,1.45,2.24,2.9,2.24h.77c.69,0,.88.29.88.67,0,.49-.48.69-1.25.69-2.04,0-6.7-.29-7.66-.29-.88,0-5.14.29-8.64.29-1.07,0-1.66-.2-1.66-.69,0-.37.4-.67.79-.67.58,0,1.84-.11,2.53-.2,3.87-.49,5.52-3.39,7.17-7.57l20.09-51.62ZM332.3,275.55c.39,0,.39-.19.29-.59l-8.44-22.6c-.49-1.27-.98-1.27-1.46,0l-7.95,22.6c-.09.39,0,.59.29.59h17.27Z"/>
  <path class="cls-3" d="M364.04,300.78c-1.17-.58-1.26-.87-1.26-3.11,0-4.07.38-7.37.48-8.73,0-.87.19-1.35.67-1.35s.78.29.78.97,0,1.85.29,3.01c1.36,6.01,7.76,8.14,13.49,8.14,8.44,0,12.8-4.75,12.8-10.96s-3.2-8.74-10.76-14.37l-3.88-2.91c-9.21-6.89-12.23-11.94-12.23-17.66,0-9.7,7.66-15.53,18.93-15.53,3.39,0,6.78.49,8.82.97,1.65.39,2.33.39,3.01.39s.87.1.87.59c0,.39-.39,3.11-.39,8.73,0,1.27-.1,1.84-.67,1.84s-.69-.39-.77-1.07c-.11-.97-.78-3.2-1.27-4.07-.57-.97-3.39-4.07-11.06-4.07-6.21,0-11.35,3.11-11.35,8.92,0,5.25,2.61,8.25,11.06,13.98l2.43,1.65c10.38,7.08,13.97,12.81,13.97,19.89,0,4.85-1.85,10.08-7.96,14.07-3.59,2.33-8.93,2.91-13.58,2.91-3.98,0-8.93-.58-12.42-2.23Z"/>
  <path class="cls-3" d="M435.07,241.2c1.05-2.71,1.45-3.19,2.04-3.19.86,0,1.15,1.15,2.03,3,1.55,3.49,15.23,37.55,20.47,50.07,3.11,7.37,5.43,8.44,7.28,9.02,1.26.38,2.52.49,3.4.49.49,0,1.07.19,1.07.67s-.97.69-1.95.69c-1.26,0-7.56,0-13.48-.2-1.65-.09-3.02-.09-3.02-.58,0-.39.2-.39.59-.57.49-.2,1.37-.88.78-2.24l-7.66-18.91c-.19-.39-.29-.49-.77-.49h-19.71c-.38,0-.67.19-.86.67l-4.86,13.2c-.78,2.04-1.26,4.08-1.26,5.53,0,1.65,1.46,2.24,2.91,2.24h.78c.67,0,.88.29.88.67,0,.49-.49.69-1.26.69-2.05,0-6.7-.29-7.68-.29-.87,0-5.14.29-8.63.29-1.07,0-1.65-.2-1.65-.69,0-.37.39-.67.77-.67.59,0,1.85-.11,2.52-.2,3.88-.49,5.54-3.39,7.18-7.57l20.09-51.62ZM444.58,275.55c.38,0,.38-.19.28-.59l-8.44-22.6c-.48-1.27-.97-1.27-1.45,0l-7.96,22.6c-.1.39,0,.59.29.59h17.27Z"/>
  <path class="cls-3" d="M486.21,290.69c.19,6.8.97,8.83,3.29,9.42,1.55.38,3.49.49,4.27.49.39,0,.69.29.69.67,0,.49-.59.69-1.55.69-4.85,0-8.24-.29-9.02-.29s-4.37.29-8.24.29c-.88,0-1.37-.1-1.37-.69,0-.37.29-.67.67-.67.69,0,2.24-.11,3.5-.49,2.14-.59,2.43-2.81,2.43-10.28v-47.26c0-3.3.48-4.18,1.16-4.18.97,0,2.43,1.66,3.3,2.53,1.36,1.35,13.78,14.55,26.98,28.13,8.43,8.74,17.55,18.54,20.17,21.25l-.87-41.33c-.1-5.33-.58-7.18-3.21-7.66-1.55-.29-3.49-.39-4.17-.39-.59,0-.67-.49-.67-.78,0-.49.67-.58,1.64-.58,3.88,0,7.96.19,8.94.19s3.78-.19,7.27-.19c.87,0,1.55.09,1.55.58,0,.29-.39.78-.97.78-.38,0-1.07,0-2.04.19-2.81.59-3,2.24-3,7.18l-.2,48.32c0,5.43-.09,5.92-.68,5.92-.87,0-1.75-.68-6.5-5.04-.87-.78-13.19-12.91-22.21-22.32-9.9-10.38-19.51-20.47-22.12-23.38l.97,38.91Z"/>
  <path class="cls-3" d="M61,343.68c0-13.3,0-15.71-.2-18.44-.2-2.92-.71-4.33-3.62-4.73-.7-.11-2.22-.21-3.04-.21-.29,0-.7-.4-.7-.7,0-.5.41-.7,1.42-.7,4.03,0,9.57.2,10.27.2,1.92,0,8.57-.2,12.6-.2,11.38,0,15.42,3.53,16.93,4.84,2.01,1.82,4.42,5.64,4.42,10.27,0,12.3-9.26,20.46-22.86,20.46-.51,0-2.03,0-2.52-.1-.4,0-.91-.4-.91-.8,0-.7.51-.91,2.32-.91,9.57,0,16.42-6.04,16.42-13.79,0-2.83-.3-8.37-5.04-13-4.63-4.63-9.97-4.13-11.99-4.13-1.51,0-4.03.4-4.94.6-.5.11-.7.71-.7,1.62v34.86c0,8.26,0,15.01.4,18.54.3,2.52.81,4.13,3.53,4.54,1.21.2,3.12.4,3.93.4.52,0,.7.4.7.7,0,.4-.39.71-1.41.71-4.83,0-10.68-.3-11.08-.3-.3,0-6.04.3-8.77.3-.91,0-1.41-.21-1.41-.71,0-.3.2-.7.7-.7.8,0,1.91-.2,2.72-.4,1.71-.4,1.91-2.02,2.32-4.54.5-3.53.5-10.28.5-18.54v-15.12Z"/>
  <path class="cls-3" d="M118.64,343.68c0-13.3,0-15.71-.2-18.44-.2-2.92-.71-4.33-3.63-4.73-.7-.11-2.22-.21-3.02-.21-.3,0-.71-.4-.71-.7,0-.5.41-.7,1.42-.7,4.03,0,9.77.2,10.27.2.61,0,19.15.11,21.17,0,1.72-.09,3.32-.4,4.03-.5.4-.11.81-.4,1.21-.4.3,0,.4.4.4.81,0,.6-.51,1.61-.7,4.03-.11.8-.31,4.63-.51,5.64-.09.4-.4.91-.81.91-.49,0-.7-.4-.7-1.11,0-.6-.09-2.01-.49-3.02-.6-1.41-1.51-2.02-6.35-2.62-1.51-.2-11.79-.3-12.8-.3-.4,0-.5.3-.5.91v23.27c0,.6,0,.9.5.9,1.11,0,12.8,0,14.81-.19,2.12-.2,3.42-.3,4.34-1.21.6-.6,1.01-1.11,1.3-1.11s.52.21.52.71-.52,1.91-.71,4.73c-.2,1.72-.4,4.95-.4,5.55,0,.7-.21,1.61-.81,1.61-.4,0-.6-.3-.6-.8,0-.8,0-1.72-.41-2.82-.3-1.21-1.11-2.22-4.53-2.62-2.42-.3-11.89-.4-13.4-.4-.51,0-.61.3-.61.6v7.15c0,2.92-.09,12.89,0,14.61.2,5.74,1.82,6.86,10.58,6.86,2.31,0,6.55,0,8.86-.91,2.32-1.01,3.53-2.52,4.03-5.95.21-1,.41-1.31.91-1.31s.61.71.61,1.31-.71,6.45-1.21,8.26c-.6,2.22-1.51,2.22-4.93,2.22-6.65,0-11.79-.2-15.42-.3-3.73-.2-6.04-.2-7.36-.2-.19,0-1.91,0-3.82.1-1.71.1-3.74.21-5.14.21-.9,0-1.41-.21-1.41-.71,0-.3.2-.7.7-.7.81,0,1.92-.3,2.73-.4,1.71-.3,1.9-2.02,2.31-4.54.5-3.53.5-10.28.5-18.54v-15.12Z"/>
  <path class="cls-3" d="M177.89,372c.2,7.05,1.01,9.17,3.43,9.77,1.61.4,3.63.51,4.44.51.4,0,.7.3.7.7,0,.5-.6.71-1.61.71-5.04,0-8.57-.3-9.37-.3s-4.53.3-8.57.3c-.9,0-1.41-.11-1.41-.71,0-.4.31-.7.71-.7.7,0,2.32-.11,3.63-.51,2.22-.6,2.52-2.92,2.52-10.68v-49.07c0-3.43.5-4.34,1.21-4.34,1,0,2.51,1.72,3.42,2.62,1.42,1.42,14.31,15.12,28.02,29.23,8.75,9.07,18.23,19.25,20.95,22.07l-.91-42.93c-.1-5.54-.61-7.45-3.32-7.96-1.62-.3-3.63-.4-4.34-.4-.6,0-.7-.49-.7-.8,0-.5.7-.6,1.71-.6,4.03,0,8.27.2,9.27.2s3.94-.2,7.55-.2c.91,0,1.61.11,1.61.6,0,.31-.4.8-1,.8-.4,0-1.11,0-2.12.21-2.92.6-3.12,2.31-3.12,7.45l-.2,50.18c0,5.64-.11,6.14-.7,6.14-.91,0-1.82-.7-6.75-5.24-.91-.8-13.7-13.4-23.07-23.18-10.28-10.78-20.26-21.25-22.97-24.28l1,40.41Z"/>
  <path class="cls-3" d="M256.1,343.68c0-13.3,0-15.71-.21-18.44-.2-2.92-.7-4.33-3.63-4.73-.7-.11-2.21-.21-3.01-.21-.3,0-.7-.4-.7-.7,0-.5.4-.7,1.41-.7,4.03,0,9.77.2,10.28.2.6,0,19.15.11,21.16,0,1.7-.09,3.32-.4,4.03-.5.4-.11.81-.4,1.21-.4.3,0,.4.4.4.81,0,.6-.5,1.61-.7,4.03-.09.8-.3,4.63-.5,5.64-.11.4-.4.91-.81.91-.5,0-.7-.4-.7-1.11,0-.6-.1-2.01-.5-3.02-.61-1.41-1.51-2.02-6.35-2.62-1.51-.2-11.79-.3-12.79-.3-.4,0-.51.3-.51.91v23.27c0,.6,0,.9.51.9,1.11,0,12.79,0,14.82-.19,2.11-.2,3.42-.3,4.32-1.21.61-.6,1.01-1.11,1.31-1.11s.5.21.5.71-.5,1.91-.7,4.73c-.21,1.72-.4,4.95-.4,5.55,0,.7-.2,1.61-.8,1.61-.41,0-.62-.3-.62-.8,0-.8,0-1.72-.39-2.82-.31-1.21-1.11-2.22-4.55-2.62-2.41-.3-11.88-.4-13.4-.4-.5,0-.6.3-.6.6v7.15c0,2.92-.1,12.89,0,14.61.21,5.74,1.82,6.86,10.58,6.86,2.32,0,6.55,0,8.87-.91,2.32-1.01,3.53-2.52,4.03-5.95.21-1,.4-1.31.91-1.31s.6.71.6,1.31-.7,6.45-1.22,8.26c-.6,2.22-1.51,2.22-4.93,2.22-6.64,0-11.78-.2-15.41-.3-3.73-.2-6.05-.2-7.36-.2-.2,0-1.92,0-3.83.1-1.72.1-3.73.21-5.14.21-.9,0-1.42-.21-1.42-.71,0-.3.21-.7.71-.7.81,0,1.92-.3,2.72-.4,1.72-.3,1.92-2.02,2.32-4.54.51-3.53.51-10.28.51-18.54v-15.12Z"/>
  <path class="cls-3" d="M311.63,343.68c0-13.3,0-15.71-.2-18.44-.21-2.92-.71-4.33-3.63-4.73-.7-.11-2.21-.21-3.02-.21-.31,0-.71-.4-.71-.7,0-.5.4-.7,1.41-.7,4.03,0,9.98.2,10.47.2.91,0,8.37-.2,11.09-.2,5.64,0,11.89.5,16.52,3.73,2.21,1.61,6.15,5.75,6.15,11.68,0,6.35-2.62,12.5-10.88,19.56,7.25,9.07,13.39,16.82,18.53,22.16,4.74,4.84,7.67,5.64,9.88,5.95,1.72.3,2.62.3,3.12.3s.8.4.8.7c0,.5-.5.71-2.11.71h-5.55c-5.03,0-7.25-.5-9.47-1.71-3.82-2.03-7.04-6.15-12.08-12.6-3.74-4.64-7.66-10.18-9.57-12.5-.4-.4-.61-.5-1.21-.5l-11.29-.2c-.4,0-.61.2-.61.7v2.02c0,8.26,0,14.91.41,18.44.29,2.52.81,4.13,3.52,4.54,1.22.2,3.13.4,3.94.4.6,0,.7.4.7.7,0,.4-.41.71-1.41.71-4.85,0-10.49-.3-10.88-.3-.1,0-6.05.3-8.77.3-.91,0-1.41-.21-1.41-.71,0-.3.2-.7.7-.7.8,0,1.92-.2,2.72-.4,1.72-.4,1.92-2.02,2.32-4.54.5-3.53.5-10.28.5-18.54v-15.12ZM319.28,350.93c0,.5.21.81.61,1.11,1.31.7,5.84,1.3,9.77,1.3,2.11,0,4.53-.09,6.66-1.51,3.01-2.02,5.33-6.54,5.33-13.1,0-10.68-5.85-16.83-15.31-16.83-2.62,0-5.45.3-6.36.5-.4.2-.7.5-.7,1.01v27.5Z"/>
  <path class="cls-3" d="M459.82,364.23c0,13.91-.3,19.25-2.93,25.3-1.9,4.32-5.84,8.36-12.99,13.09-1.21.81-2.72,1.72-3.63,2.21-.09,0-.3.11-.61.11-.21,0-.6-.11-.6-.5,0-.5.3-.9,1.11-1.41,1.1-.6,2.31-1.61,3.12-2.32,5.74-5.74,8.47-10.17,8.47-32.24v-24.79c0-13.3,0-15.71-.21-18.44-.21-2.92-.7-4.33-3.63-4.73-.7-.11-2.21-.21-3.02-.21-.3,0-.7-.4-.7-.7,0-.5.4-.7,1.41-.7,4.03,0,9.77.2,10.28.2.4,0,5.94-.2,8.66-.2,1.01,0,1.41.2,1.41.7,0,.3-.4.7-.71.7-.6,0-1.2,0-2.21.21-2.41.49-2.91,1.71-3.12,4.73-.11,2.72-.11,5.14-.11,18.44v20.55Z"/>
  <path class="cls-3" d="M482.53,343.68c0-13.3,0-15.71-.19-18.44-.21-2.72-.71-4.33-3.63-4.73-.7-.11-2.21-.21-3.02-.21-.31,0-.71-.4-.71-.7,0-.5.4-.7,1.42-.7,4.03,0,9.36.2,10.18.2s6.35-.2,8.96-.2c1,0,1.51.2,1.51.7,0,.3-.41.7-.81.7-.6,0-1.11,0-2.21.21-2.33.4-2.83,1.91-3.04,4.73-.2,2.72-.2,5.14-.2,18.44v11.99c0,12.39,2.72,17.53,6.56,20.95,4.32,3.93,8.16,4.65,13.2,4.65,5.43,0,10.68-2.43,13.69-6.05,4.13-4.94,5.04-11.99,5.04-20.76v-10.78c0-13.3-.1-15.71-.2-18.44-.09-2.72-.6-4.33-3.52-4.73-.71-.11-2.23-.21-3.03-.21-.4,0-.7-.4-.7-.7,0-.5.41-.7,1.41-.7,3.93,0,9.06.2,9.57.2.6,0,4.83-.2,7.45-.2,1.01,0,1.41.2,1.41.7,0,.3-.3.7-.7.7-.6,0-1.11,0-2.21.21-2.42.49-2.93,1.91-3.13,4.73-.2,2.72-.09,5.14-.09,18.44v9.18c0,9.27-1.22,19.64-8.27,25.69-6.46,5.54-13.3,6.25-18.54,6.25-2.93,0-12.2-.21-18.45-6.04-4.34-4.04-7.76-9.98-7.76-22.48v-12.6Z"/>
  <path class="cls-3" d="M59.97,421.06c0-10.49,0-12.4-.15-14.54-.16-2.31-.56-3.42-2.84-3.74-.54-.08-1.73-.16-2.36-.16-.23,0-.54-.32-.54-.55,0-.4.3-.56,1.1-.56,3.15,0,7.46.16,8.03.16,1.49,0,6.68-.16,9.83-.16,8.89,0,12.04,2.79,13.22,3.82,1.57,1.43,3.46,4.44,3.46,8.11,0,9.69-7.23,16.12-17.85,16.12-.39,0-1.58,0-1.97-.08-.31,0-.7-.32-.7-.63,0-.56.39-.72,1.82-.72,7.46,0,12.81-4.76,12.81-10.88,0-2.23-.23-6.6-3.93-10.25-3.63-3.66-7.79-3.26-9.37-3.26-1.17,0-3.14.32-3.85.48-.39.08-.55.56-.55,1.27v27.49c0,6.52,0,11.85.32,14.62.23,1.99.63,3.26,2.75,3.58.94.15,2.44.32,3.07.32.39,0,.54.32.54.55,0,.32-.31.55-1.1.55-3.79,0-8.34-.23-8.66-.23-.23,0-4.72.23-6.84.23-.71,0-1.1-.15-1.1-.55,0-.23.15-.55.55-.55.63,0,1.49-.17,2.12-.32,1.34-.32,1.49-1.59,1.82-3.58.38-2.78.38-8.1.38-14.62v-11.91Z"/>
  <path class="cls-3" d="M104.51,421.06c0-10.49,0-12.4-.15-14.54-.16-2.31-.56-3.42-2.84-3.74-.55-.08-1.73-.16-2.36-.16-.25,0-.56-.32-.56-.55,0-.4.31-.56,1.11-.56,3.15,0,7.63.16,8.03.16.47,0,14.95.08,16.52,0,1.33-.08,2.6-.32,3.15-.4.32-.08.63-.32.94-.32.25,0,.32.32.32.63,0,.48-.4,1.27-.56,3.18-.08.64-.23,3.65-.39,4.45-.08.32-.32.71-.63.71-.4,0-.55-.32-.55-.87,0-.47-.08-1.59-.4-2.38-.47-1.11-1.18-1.59-4.96-2.07-1.18-.15-9.21-.23-9.99-.23-.32,0-.4.23-.4.71v18.36c0,.49,0,.72.4.72.86,0,9.99,0,11.56-.16,1.66-.15,2.68-.23,3.39-.95.47-.48.79-.87,1.03-.87s.39.16.39.56-.39,1.51-.55,3.73c-.16,1.35-.32,3.89-.32,4.38,0,.55-.15,1.27-.62,1.27-.33,0-.49-.25-.49-.64,0-.63,0-1.35-.31-2.23-.23-.96-.86-1.74-3.54-2.07-1.89-.23-9.29-.31-10.46-.31-.39,0-.47.24-.47.47v5.64c0,2.31-.08,10.18,0,11.53.16,4.52,1.41,5.4,8.26,5.4,1.81,0,5.12,0,6.92-.71,1.82-.8,2.75-1.99,3.15-4.69.16-.8.32-1.04.71-1.04s.47.56.47,1.04-.55,5.09-.94,6.51c-.47,1.75-1.18,1.75-3.86,1.75-5.18,0-9.2-.16-12.04-.23-2.92-.16-4.72-.16-5.74-.16-.16,0-1.5,0-2.99.08-1.34.08-2.92.15-4.02.15-.71,0-1.1-.15-1.1-.55,0-.23.15-.55.54-.55.63,0,1.49-.25,2.12-.32,1.34-.24,1.49-1.59,1.82-3.58.39-2.78.39-8.1.39-14.62v-11.91Z"/>
  <path class="cls-3" d="M150.31,443.39c.16,5.56.79,7.23,2.67,7.71,1.25.32,2.84.4,3.47.4.3,0,.54.23.54.55,0,.4-.47.55-1.25.55-3.93,0-6.68-.23-7.31-.23s-3.54.23-6.69.23c-.7,0-1.1-.07-1.1-.55,0-.32.23-.55.55-.55.55,0,1.8-.08,2.84-.4,1.72-.47,1.96-2.31,1.96-8.42v-38.71c0-2.7.4-3.41.96-3.41.79,0,1.96,1.35,2.67,2.06,1.11,1.11,11.18,11.92,21.88,23.04,6.84,7.15,14.24,15.18,16.37,17.4l-.7-33.85c-.08-4.37-.48-5.88-2.6-6.28-1.26-.23-2.84-.32-3.39-.32-.47,0-.55-.39-.55-.63,0-.4.55-.48,1.34-.48,3.15,0,6.46.16,7.24.16s3.07-.16,5.91-.16c.71,0,1.25.08,1.25.48,0,.24-.31.63-.79.63-.32,0-.86,0-1.65.16-2.29.47-2.44,1.82-2.44,5.87l-.15,39.59c0,4.44-.09,4.84-.56,4.84-.7,0-1.42-.55-5.27-4.13-.7-.64-10.7-10.57-18.02-18.28-8.03-8.5-15.82-16.77-17.94-19.15l.79,31.87Z"/>
  <path class="cls-3" d="M210.88,421.06c0-10.49,0-12.4-.15-14.54-.16-2.31-.56-3.42-2.84-3.74-.55-.08-1.73-.16-2.36-.16-.23,0-.55-.32-.55-.55,0-.4.32-.56,1.1-.56,3.15,0,7.63.16,8.03.16.78,0,5.19-.16,9.28-.16,6.93,0,19.59-.63,27.79,7.71,3.46,3.5,6.76,9.14,6.76,17.17,0,8.5-3.62,15.01-7.48,18.99-2.98,3.1-9.2,7.79-21.01,7.79-2.99,0-6.69-.23-9.67-.4-2.99-.23-5.36-.4-5.67-.4-.16,0-1.42.08-2.84.08-1.42.08-3.06.15-4.17.15-.71,0-1.1-.15-1.1-.55,0-.23.15-.55.54-.55.63,0,1.5-.17,2.13-.32,1.33-.32,1.49-1.59,1.8-3.58.4-2.78.4-8.1.4-14.62v-11.91ZM217.18,428.37c0,7.16,0,13.43.08,14.7.08,1.67.24,4.13.78,4.85.87,1.28,3.32,2.71,11.5,2.71,6.37,0,12.04-2.14,16.21-6.12,3.63-3.42,5.44-9.86,5.44-16.05,0-8.58-3.7-14.06-6.54-16.93-6.53-6.67-14.16-7.55-22.42-7.55-1.33,0-3.54.25-4.18.49-.63.23-.86.56-.86,1.35v22.56Z"/>
  <path class="cls-3" d="M279.66,432.97c0,6.52,0,11.85.3,14.62.24,1.99.48,3.26,2.52,3.58,1.03.15,2.52.32,3.15.32.39,0,.55.32.55.55,0,.32-.32.55-1.1.55-3.87,0-8.35-.23-8.65-.23-.4,0-4.73.23-6.86.23-.7,0-1.1-.15-1.1-.55,0-.23.16-.55.55-.55.63,0,1.5-.17,2.13-.32,1.33-.32,1.56-1.59,1.8-3.58.32-2.78.39-8.1.39-14.62v-11.91c0-10.49,0-12.4-.16-14.54-.15-2.31-.7-3.34-2.2-3.67-.79-.15-1.65-.23-2.12-.23-.32,0-.56-.32-.56-.55,0-.4.33-.56,1.1-.56,2.29,0,6.62.16,7.02.16.3,0,4.79-.16,6.91-.16.79,0,1.11.16,1.11.56,0,.23-.33.55-.56.55-.47,0-.94,0-1.72.16-1.89.4-2.29,1.35-2.45,3.74-.07,2.13-.07,4.05-.07,14.54v11.91Z"/>
  <path class="cls-3" d="M301.92,421.06c0-10.49,0-12.4-.16-14.54-.16-2.31-.56-3.42-2.84-3.74-.55-.08-1.73-.16-2.35-.16-.25,0-.56-.32-.56-.55,0-.4.3-.56,1.1-.56,3.15,0,7.63.16,8.03.16.79,0,5.2-.16,9.28-.16,6.93,0,19.59-.63,27.77,7.71,3.47,3.5,6.78,9.14,6.78,17.17,0,8.5-3.63,15.01-7.48,18.99-2.99,3.1-9.21,7.79-21,7.79-3.01,0-6.7-.23-9.69-.4-2.99-.23-5.36-.4-5.67-.4-.16,0-1.42.08-2.83.08-1.42.08-3.08.15-4.18.15-.7,0-1.1-.15-1.1-.55,0-.23.15-.55.54-.55.63,0,1.51-.17,2.12-.32,1.35-.32,1.49-1.59,1.82-3.58.4-2.78.4-8.1.4-14.62v-11.91ZM308.22,428.37c0,7.16,0,13.43.08,14.7.08,1.67.23,4.13.79,4.85.87,1.28,3.29,2.71,11.48,2.71,6.37,0,12.04-2.14,16.22-6.12,3.62-3.42,5.41-9.86,5.41-16.05,0-8.58-3.69-14.06-6.53-16.93-6.53-6.67-14.17-7.55-22.43-7.55-1.34,0-3.53.25-4.16.49-.64.23-.87.56-.87,1.35v22.56Z"/>
  <path class="cls-3" d="M370.69,432.97c0,6.52,0,11.85.3,14.62.23,1.99.47,3.26,2.52,3.58,1.03.15,2.52.32,3.15.32.39,0,.56.32.56.55,0,.32-.32.55-1.11.55-3.86,0-8.34-.23-8.66-.23-.39,0-4.72.23-6.84.23-.71,0-1.09-.15-1.09-.55,0-.23.14-.55.54-.55.63,0,1.49-.17,2.12-.32,1.34-.32,1.58-1.59,1.81-3.58.32-2.78.4-8.1.4-14.62v-11.91c0-10.49,0-12.4-.16-14.54-.15-2.31-.7-3.34-2.2-3.67-.79-.15-1.65-.23-2.13-.23-.3,0-.54-.32-.54-.55,0-.4.3-.56,1.1-.56,2.27,0,6.61.16,7,.16.32,0,4.8-.16,6.93-.16.79,0,1.1.16,1.1.56,0,.23-.3.55-.54.55-.47,0-.96,0-1.73.16-1.89.4-2.29,1.35-2.45,3.74-.07,2.13-.07,4.05-.07,14.54v11.91Z"/>
  <path class="cls-3" d="M392.96,421.06c0-10.49,0-12.4-.16-14.54-.16-2.31-.55-3.42-2.82-3.74-.56-.08-1.73-.16-2.37-.16-.23,0-.54-.32-.54-.55,0-.4.31-.56,1.1-.56,3.15,0,7.39.16,7.79.16.63,0,4.79-.16,6.84-.16.79,0,1.11.16,1.11.56,0,.23-.24.55-.55.55-.47,0-.86,0-1.73.16-1.81.4-2.28,1.35-2.44,3.74-.15,2.13-.15,4.05-.15,14.54v4.05h.31c1.1-1.27,13.46-13.59,16.05-16.29,1.96-1.99,3.78-3.74,3.78-4.85,0-.87-.32-1.27-.86-1.35-.4-.08-.63-.39-.63-.63,0-.32.31-.48.79-.48,1.41,0,3.54.16,5.19.16.4,0,4.95-.16,6.68-.16.72,0,1.03.16,1.03.48s-.15.56-.7.56c-1.03,0-2.52.39-3.85.95-2.84,1.28-4.18,2.78-7.25,5.72-1.73,1.59-13.53,13.03-15.02,14.71,1.8,1.98,16.21,16.52,19.03,19.14,5.83,5.24,6.62,6.12,9.92,7.47,1.82.71,3.78.96,4.25.96s.87.23.87.55-.31.55-1.48.55h-3.54c-1.97,0-3.24,0-4.8-.15-3.62-.32-5.43-1.83-8.43-4.14-3.15-2.46-17.71-17.96-21.01-21.93h-.31v6.59c0,6.52,0,11.85.31,14.62.23,1.99.55,3.26,2.68,3.58.94.15,2.04.32,2.67.32.39,0,.56.32.56.55,0,.32-.32.55-1.11.55-3.39,0-7.55-.23-8.11-.23s-4.72.23-6.84.23c-.72,0-1.1-.15-1.1-.55,0-.23.16-.55.54-.55.63,0,1.49-.17,2.12-.32,1.35-.32,1.5-1.59,1.82-3.58.4-2.78.4-8.1.4-14.62v-11.91Z"/>
  <path class="cls-3" d="M455.04,402.86c.86-2.21,1.18-2.62,1.65-2.62.71,0,.94.96,1.65,2.47,1.26,2.87,12.36,30.76,16.61,41,2.52,6.04,4.41,6.91,5.91,7.39,1.02.32,2.03.4,2.75.4.39,0,.86.15.86.55s-.79.55-1.58.55c-1.01,0-6.13,0-10.93-.15-1.34-.08-2.44-.08-2.44-.47,0-.32.16-.32.47-.47.39-.17,1.11-.72.64-1.83l-6.22-15.5c-.16-.32-.23-.39-.63-.39h-15.98c-.3,0-.54.15-.7.56l-3.93,10.8c-.64,1.66-1.03,3.34-1.03,4.53,0,1.35,1.17,1.83,2.36,1.83h.63c.56,0,.7.23.7.55,0,.4-.39.55-1.03.55-1.64,0-5.42-.23-6.21-.23-.71,0-4.17.23-7,.23-.86,0-1.34-.15-1.34-.55,0-.32.31-.55.62-.55.48,0,1.5-.08,2.05-.17,3.15-.39,4.48-2.78,5.83-6.19l16.29-42.28ZM462.74,430.99c.32,0,.32-.15.23-.48l-6.84-18.52c-.39-1.03-.79-1.03-1.18,0l-6.45,18.52c-.08.33,0,.48.23.48h14Z"/>
  <path class="cls-3" d="M496.02,443.39c.16,5.56.79,7.23,2.68,7.71,1.26.32,2.83.4,3.46.4.31,0,.55.23.55.55,0,.4-.47.55-1.26.55-3.93,0-6.69-.23-7.32-.23s-3.54.23-6.69.23c-.71,0-1.11-.07-1.11-.55,0-.32.23-.55.56-.55.55,0,1.8-.08,2.83-.4,1.73-.47,1.96-2.31,1.96-8.42v-38.71c0-2.7.39-3.41.95-3.41.79,0,1.96,1.35,2.68,2.06,1.1,1.11,11.17,11.92,21.87,23.04,6.85,7.15,14.24,15.18,16.37,17.4l-.71-33.85c-.08-4.37-.47-5.88-2.6-6.28-1.26-.23-2.84-.32-3.38-.32-.47,0-.56-.39-.56-.63,0-.4.56-.48,1.33-.48,3.16,0,6.46.16,7.25.16s3.06-.16,5.9-.16c.7,0,1.26.08,1.26.48,0,.24-.32.63-.79.63-.32,0-.86,0-1.65.16-2.28.47-2.43,1.82-2.43,5.87l-.16,39.59c0,4.44-.08,4.84-.56,4.84-.7,0-1.41-.55-5.27-4.13-.7-.64-10.69-10.57-18.02-18.28-8.03-8.5-15.82-16.77-17.94-19.15l.79,31.87Z"/>
  <polyline class="cls-2" points="403.48 372.54 409.58 361.97 409.58 361.97 410.3 361.21 410.83 325.62 410.01 318.65 409.58 317.43 390.64 350.23 371.72 383.03 397.42 383.03"/>
  <polyline class="cls-3" points="421.75 383.03 447.45 383.03 428.52 350.23 409.58 317.43 409.58 361.97 415.69 372.54"/>
  <path class="cls-2" d="M106.82,188.11l-5.04-1.59c-.46,7.22,2.72,1.54,5.04,1.59Z"/>
  <g>
    <path class="cls-3" d="M59.54,488.77c0-10.64,0-12.56-.13-14.74-.13-2.33-.68-3.42-2.93-3.89-.54-.14-1.71-.2-2.33-.2-.27,0-.54-.14-.54-.41,0-.41.34-.55,1.1-.55,3.07,0,7.37.21,7.71.21,1.64,0,4.31-.21,7.44-.21,11.19,0,13.65,6.83,13.65,10.24,0,5.6-3.21,8.94-6.41,12.28,5.04,1.57,11.8,6.42,11.8,14.4,0,7.29-5.74,14.87-17.4,14.87-.76,0-2.94-.13-4.92-.2-1.98-.13-3.88-.21-4.16-.21-.13,0-1.29,0-2.72.08-1.37,0-2.94.13-3.96.13-.76,0-1.1-.13-1.1-.54,0-.21.14-.41.55-.41.61,0,1.43-.13,2.04-.28,1.37-.27,1.72-1.78,1.97-3.76.35-2.87.35-8.26.35-14.8v-12.01ZM65,490.27c0,.47.14.62.49.75.41.07,1.64.28,4.16.28,3.83,0,4.78-.14,6.21-1.78,1.44-1.64,2.46-4.1,2.46-6.9,0-5.66-2.53-11.74-9.21-11.74-.75,0-2.18.08-3.28.35-.61.13-.82.34-.82.75v18.29ZM65,497.5c0,5.25,0,13.71.08,14.74.21,3.34.21,4.3,2.31,5.32,1.85.89,4.78,1.02,6.01,1.02,3.69,0,9.63-1.97,9.63-9.69,0-4.1-1.37-10.03-6.62-13.65-2.32-1.57-4.03-1.77-5.67-1.98-.88-.13-4.29-.13-5.33-.13-.27,0-.41.13-.41.47v3.9Z"/>
    <path class="cls-3" d="M102.47,488.77c0-10.64,0-12.56-.13-14.74-.14-2.33-.69-3.42-2.94-3.89-.55-.14-1.71-.2-2.32-.2-.28,0-.54-.14-.54-.41,0-.41.33-.55,1.08-.55,3.08,0,7.24.21,7.85.21s4.71-.21,6.75-.21c.76,0,1.1.14,1.1.55,0,.27-.28.41-.55.41-.47,0-.88.06-1.71.2-1.85.27-2.38,1.49-2.52,3.89-.15,2.18-.15,4.1-.15,14.74v9.55c0,9.83,2.18,14.05,5.13,16.85,3.34,3.14,6.41,3.76,10.29,3.76,4.16,0,8.26-1.97,10.71-4.92,3.15-3.88,3.96-9.69,3.96-16.71v-8.53c0-10.64,0-12.56-.14-14.74-.13-2.33-.67-3.42-2.93-3.89-.54-.14-1.71-.2-2.32-.2-.27,0-.55-.14-.55-.41,0-.41.35-.55,1.1-.55,3.07,0,6.83.21,7.24.21.47,0,3.67-.21,5.72-.21.75,0,1.1.14,1.1.55,0,.27-.28.41-.55.41-.47,0-.88.06-1.7.2-1.85.41-2.38,1.49-2.54,3.89-.13,2.18-.13,4.1-.13,14.74v7.3c0,7.37-.82,15.56-6.28,20.4-4.92,4.37-10.03,5.05-14.06,5.05-2.32,0-9.21-.27-14.06-4.84-3.34-3.21-5.93-7.99-5.93-17.95v-9.96Z"/>
    <path class="cls-3" d="M212.75,511.77c.28,2.46.75,6.28,3.69,7.22,1.97.62,3.75.62,4.44.62.33,0,.54.06.54.33,0,.41-.62.62-1.44.62-1.5,0-8.87-.21-11.39-.41-1.57-.13-1.91-.34-1.91-.67,0-.28.13-.41.47-.49.35-.06.41-1.23.28-2.45l-3.28-35.21h-.21l-16.72,35.48c-1.43,3-1.64,3.62-2.24,3.62-.47,0-.82-.69-2.12-3.15-1.78-3.34-7.65-15.15-7.99-15.83-.62-1.23-8.26-17.61-9.01-19.45h-.28l-2.73,31.66c-.06,1.08-.06,2.31-.06,3.48,0,1.01.75,1.91,1.78,2.12,1.15.27,2.18.34,2.59.34.26,0,.54.13.54.33,0,.49-.41.62-1.23.62-2.52,0-5.8-.21-6.34-.21-.62,0-3.9.21-5.74.21-.68,0-1.17-.13-1.17-.62,0-.2.35-.33.69-.33.54,0,1.03,0,2.05-.21,2.24-.41,2.45-3.06,2.72-5.66l4.9-44.5c.08-.74.35-1.22.76-1.22s.68.27,1.02,1.02l20.88,42.91,20.06-42.84c.27-.62.55-1.09,1.02-1.09s.69.54.82,1.84l4.57,41.9Z"/>
    <path class="cls-3" d="M239.37,500.78c0,6.54,0,11.94.34,14.8.2,1.98.62,3.49,2.67,3.76.96.14,2.46.28,3.06.28.41,0,.55.2.55.41,0,.33-.35.54-1.1.54-3.75,0-8.05-.21-8.4-.21s-4.64.21-6.68.21c-.76,0-1.1-.13-1.1-.54,0-.21.13-.41.54-.41.61,0,1.43-.13,2.05-.28,1.36-.27,1.71-1.78,1.97-3.76.35-2.87.35-8.26.35-14.8v-12.01c0-10.64,0-12.56-.14-14.74-.13-2.33-.82-3.48-2.31-3.83-.76-.21-1.64-.27-2.13-.27-.26,0-.54-.14-.54-.41,0-.41.34-.55,1.1-.55,2.24,0,6.54.21,6.88.21s4.65-.21,6.7-.21c.74,0,1.08.14,1.08.55,0,.27-.27.41-.54.41-.49,0-.9.06-1.71.2-1.84.33-2.39,1.49-2.53,3.89-.13,2.18-.13,4.1-.13,14.74v12.01Z"/>
    <path class="cls-3" d="M263.66,488.77c0-10.64,0-12.56-.13-14.74-.13-2.33-.68-3.42-2.93-3.89-.55-.14-1.72-.2-2.33-.2-.27,0-.54-.14-.54-.41,0-.41.33-.55,1.1-.55,3.06,0,7.17.21,7.71.21,1.5,0,5.46-.21,8.6-.21,8.53,0,11.6,2.87,12.69,3.89,1.51,1.44,3.41,4.51,3.41,8.12,0,9.69-7.09,16.24-16.78,16.24-.34,0-1.09,0-1.43-.07-.35,0-.76-.14-.76-.47,0-.55.41-.62,1.85-.62,6.62,0,11.81-4.85,11.81-11.13,0-2.24-.2-6.81-3.83-10.51-3.62-3.68-7.78-3.41-9.34-3.41-1.16,0-2.33.13-2.94.41-.4.13-.55.61-.55,1.3v28.04c0,6.54,0,11.94.35,14.8.2,1.98.61,3.49,2.65,3.76.96.14,2.46.28,3.08.28.41,0,.54.2.54.41,0,.33-.33.54-1.08.54-3.77,0-8.06-.21-8.4-.21-.21,0-4.51.21-6.56.21-.75,0-1.09-.13-1.09-.54,0-.21.13-.41.54-.41.62,0,1.44-.13,2.05-.28,1.37-.27,1.71-1.78,1.98-3.76.34-2.87.34-8.26.34-14.8v-12.01Z"/>
    <path class="cls-3" d="M303.52,488.77c0-10.64,0-12.56-.13-14.74-.13-2.33-.69-3.42-2.93-3.89-.56-.14-1.72-.2-2.33-.2-.26,0-.54-.14-.54-.41,0-.41.33-.55,1.09-.55,3.07,0,7.23.21,7.84.21s4.72-.21,6.76-.21c.76,0,1.1.14,1.1.55,0,.27-.28.41-.54.41-.48,0-.89.06-1.71.2-1.85.27-2.39,1.49-2.52,3.89-.14,2.18-.14,4.1-.14,14.74v9.55c0,9.83,2.18,14.05,5.12,16.85,3.34,3.14,6.41,3.76,10.29,3.76,4.16,0,8.26-1.97,10.72-4.92,3.13-3.88,3.96-9.69,3.96-16.71v-8.53c0-10.64,0-12.56-.14-14.74-.14-2.33-.68-3.42-2.94-3.89-.54-.14-1.7-.2-2.31-.2-.28,0-.55-.14-.55-.41,0-.41.35-.55,1.09-.55,3.08,0,6.83.21,7.24.21.47,0,3.67-.21,5.72-.21.74,0,1.1.14,1.1.55,0,.27-.28.41-.55.41-.47,0-.88.06-1.7.2-1.85.41-2.39,1.49-2.53,3.89-.14,2.18-.14,4.1-.14,14.74v7.3c0,7.37-.82,15.56-6.27,20.4-4.92,4.37-10.03,5.05-14.06,5.05-2.31,0-9.21-.27-14.05-4.84-3.35-3.21-5.94-7.99-5.94-17.95v-9.96Z"/>
    <path class="cls-3" d="M378.66,500.78c0,6.54,0,11.94.33,14.8.2,1.98.62,3.49,2.67,3.76.96.14,2.46.28,3.07.28.41,0,.55.2.55.41,0,.33-.35.54-1.1.54-3.75,0-8.04-.21-8.39-.21s-4.63.21-6.68.21c-.75,0-1.1-.13-1.1-.54,0-.21.15-.41.56-.41.61,0,1.42-.13,2.04-.28,1.37-.27,1.71-1.78,1.97-3.76.35-2.87.35-8.26.35-14.8v-28.86l-10.11.13c-4.22.07-5.87.55-6.95,2.18-.76,1.17-.97,1.64-1.17,2.13-.21.54-.41.67-.68.67-.21,0-.34-.2-.34-.61,0-.68,1.37-6.55,1.5-7.1.13-.41.41-1.29.69-1.29.47,0,1.15.68,3.01.81,1.97.21,4.56.35,5.38.35h25.59c2.18,0,3.75-.13,4.85-.35,1.02-.13,1.63-.33,1.9-.33.34,0,.34.41.34.82,0,2.04-.2,6.76-.2,7.51,0,.61-.21.89-.47.89-.35,0-.49-.21-.55-1.17l-.06-.75c-.21-2.04-1.85-3.62-8.4-3.76l-8.6-.13v28.86Z"/>
    <path class="cls-3" d="M411.28,488.77c0-10.64,0-12.56-.13-14.74-.14-2.33-.69-3.42-2.94-3.89-.55-.14-1.71-.2-2.33-.2-.27,0-.54-.14-.54-.41,0-.41.33-.55,1.08-.55,1.58,0,3.41,0,4.92.07l2.79.13c.47,0,14.05,0,15.63-.06,1.29-.07,2.39-.2,2.94-.35.33-.06.62-.33.95-.33.21,0,.28.27.28.61,0,.48-.35,1.3-.56,3.21-.06.69-.2,3.69-.34,4.51-.06.34-.21.75-.47.75-.4,0-.55-.34-.55-.88,0-.47-.06-1.64-.41-2.46-.47-1.09-1.15-1.91-4.83-2.32-1.17-.13-8.6-.21-9.36-.21-.26,0-.4.21-.4.69v18.83c0,.47.06.69.4.69.89,0,9.29,0,10.85-.13,1.64-.14,2.6-.28,3.21-.96.48-.54.74-.88,1.03-.88.21,0,.33.14.33.54s-.33,1.58-.54,3.83c-.13,1.37-.28,3.89-.28,4.37,0,.55,0,1.3-.47,1.3-.35,0-.48-.28-.48-.61,0-.69,0-1.37-.28-2.26-.26-.95-.88-2.11-3.54-2.38-1.85-.21-8.6-.33-9.76-.33-.33,0-.47.2-.47.47v6.01c0,2.32-.06,10.23,0,11.67.2,4.71,1.22,5.6,7.92,5.6,1.78,0,4.78,0,6.55-.76,1.77-.74,2.59-2.12,3.08-4.92.13-.74.26-1.01.61-1.01.41,0,.41.54.41,1.01,0,.55-.55,5.19-.89,6.62-.48,1.78-1.03,1.78-3.69,1.78-5.11,0-8.86-.13-11.53-.2-2.66-.13-4.29-.21-5.32-.21-.13,0-1.3,0-2.73.08-1.37,0-2.94.13-3.96.13-.75,0-1.08-.13-1.08-.54,0-.21.13-.41.54-.41.62,0,1.44-.13,2.05-.28,1.37-.27,1.7-1.78,1.98-3.76.33-2.87.33-8.26.33-14.8v-12.01Z"/>
    <path class="cls-3" d="M452.91,488.77c0-10.64,0-12.56-.13-14.74-.15-2.33-.69-3.42-2.95-3.89-.54-.14-1.7-.2-2.31-.2-.28,0-.54-.14-.54-.41,0-.41.33-.55,1.08-.55,3.08,0,7.37.21,7.72.21.75,0,5.94-.21,8.04-.21,4.31,0,8.88.41,12.49,3.01,1.7,1.23,4.71,4.57,4.71,9.28,0,5.06-2.11,10.1-8.25,15.76,5.59,7.17,10.22,13.24,14.19,17.47,3.68,3.89,6.61,4.64,8.33,4.91,1.29.21,2.24.21,2.65.21.35,0,.61.2.61.41,0,.41-.41.54-1.62.54h-4.85c-3.82,0-5.53-.34-7.31-1.29-2.93-1.58-5.32-4.92-9.21-10.03-2.86-3.75-6.07-8.33-7.43-10.1-.28-.27-.49-.41-.9-.41l-8.39-.14c-.34,0-.47.21-.47.55v1.64c0,6.54,0,11.94.33,14.8.21,1.98.62,3.49,2.67,3.76.96.14,2.45.28,3.06.28.41,0,.55.2.55.41,0,.33-.35.54-1.1.54-3.75,0-8.06-.21-8.39-.21-.08,0-4.37.21-6.42.21-.75,0-1.08-.13-1.08-.54,0-.21.13-.41.54-.41.62,0,1.44-.13,2.05-.28,1.37-.27,1.7-1.78,1.98-3.76.33-2.87.33-8.26.33-14.8v-12.01ZM458.38,494.71c0,.33.13.61.47.81,1.03.62,4.17,1.09,7.16,1.09,1.64,0,3.56-.2,5.13-1.29,2.39-1.64,4.16-5.32,4.16-10.51,0-8.54-4.5-13.65-11.81-13.65-2.05,0-3.88.2-4.57.41-.33.13-.54.41-.54.82v22.32Z"/>
    <path class="cls-3" d="M514.54,470.69c.82-2.25,1.09-2.66,1.49-2.66s.69.34,1.51,2.45c1.03,2.6,11.74,30.78,15.9,41.15,2.46,6.07,4.44,7.17,5.87,7.58,1.03.34,2.05.41,2.72.41.41,0,.69.06.69.41,0,.41-.62.54-1.37.54-1.03,0-6.01,0-10.72-.13-1.29-.08-2.04-.08-2.04-.49,0-.27.21-.4.48-.47.41-.14.82-.76.41-1.85l-6.35-16.79c-.13-.27-.28-.41-.62-.41h-14.67c-.34,0-.54.21-.68.55l-4.1,12.08c-.61,1.7-.95,3.34-.95,4.57,0,1.36,1.44,1.98,2.59,1.98h.69c.47,0,.67.13.67.41,0,.41-.41.54-1.02.54-1.63,0-4.58-.21-5.33-.21s-4.49.21-7.71.21c-.89,0-1.3-.13-1.3-.54,0-.28.28-.41.62-.41.48,0,1.44-.07,1.97-.13,3.15-.41,4.51-3.01,5.74-6.42l15.49-42.37ZM521.63,497.98c.35,0,.35-.21.28-.47l-6.48-18.43c-.35-1.03-.68-1.03-1.02,0l-6.01,18.43c-.15.33,0,.47.2.47h13.03Z"/>
  </g>
</svg>