<?xml version="1.0" encoding="UTF-8"?>
<svg id="Layer_1" data-name="Layer 1" xmlns="http://www.w3.org/2000/svg" viewBox="0 0 656.49 461.14">
  <defs>
    <style>
      .cls-1 {
        fill: #23073f;
        stroke-width: 0px;
      }
    </style>
  </defs>
  <g>
    <path class="cls-1" d="M315.58,385.04h-9.41v-21.65l-19.17-38.25h10.52l13.35,26.61,13.26-26.61h10.52l-19.08,38.25v21.65Z"/>
    <path class="cls-1" d="M364.18,385.04l-3.85-10.78h-21.73l-3.85,10.78h-10.01l21.39-59.89h6.67l21.39,59.89h-10.01ZM356.99,364.85l-7.53-21.05-7.44,21.05h14.97Z"/>
    <path class="cls-1" d="M392.85,385.04h-9.41v-21.65l-19.17-38.25h10.52l13.35,26.61,13.26-26.61h10.52l-19.08,38.25v21.65Z"/>
    <path class="cls-1" d="M441.45,385.04l-3.85-10.78h-21.73l-3.85,10.78h-10.01l21.39-59.89h6.67l21.39,59.89h-10.01ZM434.26,364.85l-7.53-21.05-7.44,21.05h14.97Z"/>
    <path class="cls-1" d="M474.14,325.15c5.05,0,9.24,1.2,12.66,3.68,3.51,2.4,5.9,5.99,7.19,10.52l-9.07,2.65c-.68-2.48-1.88-4.36-3.59-5.56-1.8-1.28-4.19-1.88-7.19-1.88h-.86c-4.11,0-7.27.77-9.16,2.31-1.63,1.2-2.4,3.08-2.4,5.56s.77,4.45,2.4,5.65c1.88,1.54,5.05,2.31,9.16,2.31,6.25,0,11.21,1.45,14.89,4.28,3.94,3.08,5.99,7.53,5.99,13.01s-2.05,10.01-5.99,13.09c-3.68,2.82-8.64,4.28-14.89,4.28h-.94c-4.96,0-9.24-1.2-12.66-3.68-3.42-2.4-5.9-5.99-7.19-10.52l9.07-2.65c.68,2.48,1.88,4.36,3.59,5.56,1.8,1.2,4.19,1.88,7.19,1.88h.94c4.02,0,7.19-.77,9.07-2.31,1.63-1.2,2.4-3.08,2.4-5.65s-.77-4.36-2.4-5.56c-1.88-1.54-5.05-2.31-9.07-2.31-6.25,0-11.29-1.45-14.97-4.28-3.94-3.08-5.99-7.53-5.99-13.09s2.05-9.92,5.99-13c3.68-2.82,8.73-4.28,14.97-4.28h.86Z"/>
    <path class="cls-1" d="M534.47,385.04l-3.85-10.78h-21.73l-3.85,10.78h-10.01l21.39-59.89h6.67l21.39,59.89h-10.01ZM527.28,364.85l-7.53-21.05-7.44,21.05h14.97Z"/>
    <path class="cls-1" d="M585.04,385.04l-25.16-39.19v39.19h-9.41v-59.89h7.27l25.15,39.19v-39.19h9.41v59.89h-7.27Z"/>
  </g>
  <g>
    <path class="cls-1" d="M327.04,401.25c6.42,0,11.47,1.63,15.14,4.96,3.85,3.34,5.82,8.21,5.82,14.2s-1.97,10.78-5.82,14.2c-3.68,3.25-8.73,4.88-15.14,4.88h-11.47v21.65h-9.41v-59.89h20.88ZM315.57,430.08h11.47c3.94,0,7.02-.86,8.9-2.57,1.8-1.54,2.65-3.94,2.65-7.1s-.86-5.65-2.65-7.19c-1.88-1.71-4.96-2.57-8.9-2.57h-11.47v19.42Z"/>
    <path class="cls-1" d="M363.41,410.66v15.83h25.93v9.41h-25.93v15.83h25.93v9.41h-35.34v-59.89h35.34v9.41h-25.93Z"/>
    <path class="cls-1" d="M432.46,461.14l-25.16-39.19v39.19h-9.41v-59.89h7.27l25.15,39.19v-39.19h9.41v59.89h-7.27Z"/>
    <path class="cls-1" d="M457.7,410.66v15.83h25.93v9.41h-25.93v15.83h25.93v9.41h-35.34v-59.89h35.34v9.41h-25.93Z"/>
    <path class="cls-1" d="M513.15,401.25c6.33,0,11.47,1.63,15.14,4.96,3.76,3.34,5.73,8.21,5.73,14.2s-1.97,10.78-5.73,14.2c-2.82,2.4-6.33,3.94-10.7,4.62l16.43,21.9h-11.72l-16.26-21.65h-4.45v21.65h-9.41v-59.89h20.96ZM501.6,430.08h11.55c3.94,0,7.02-.86,8.9-2.57,1.71-1.54,2.57-3.94,2.57-7.1s-.86-5.65-2.57-7.19c-1.88-1.71-4.96-2.57-8.9-2.57h-11.55v19.42Z"/>
    <path class="cls-1" d="M576.05,461.14l-3.85-10.78h-21.73l-3.85,10.78h-10.01l21.39-59.89h6.67l21.39,59.89h-10.01ZM568.86,440.95l-7.53-21.05-7.44,21.05h14.97Z"/>
    <path class="cls-1" d="M607.8,438.38c0,6.84-1.63,12.32-4.79,16.34-3.42,4.19-8.38,6.42-14.37,6.42v-9.41c3.17,0,5.48-.94,7.02-2.91,1.8-2.22,2.74-5.82,2.74-10.44v-37.13h9.41v37.13Z"/>
    <path class="cls-1" d="M656.49,438.38c0,7.02-1.8,12.58-5.39,16.51-3.68,4.11-9.07,6.25-15.57,6.25s-11.81-2.14-15.49-6.25c-3.59-3.94-5.39-9.5-5.39-16.51v-37.13h9.41v37.13c0,4.53,1.03,8.04,2.99,10.27,1.8,2.05,4.71,3.08,8.47,3.08s6.67-1.03,8.56-3.08c1.97-2.22,2.99-5.73,2.99-10.27v-37.13h9.41v37.13Z"/>
  </g>
  <path class="cls-1" d="M491.89,0c-17.48,0-34.61,1.46-51.28,4.26-3.43.57-6.82,1.21-10.2,1.9-75.02,15.21-140.12,57.76-184.46,116.79-11.78,15.68-22.09,32.51-30.74,50.3-8.65-17.8-18.96-34.63-30.74-50.3C140.12,63.92,75.02,21.37,0,6.16v63.08c86.21,22.18,154.11,89.94,176.53,176.04,5.16,19.8,7.91,40.57,7.92,61.98v153.89h61.49v-153.71c0-1.42-.01-2.84-.02-4.25h.02s.03-.01.05-.01c73.66-12.37,138.43-50.93,184.41-105.78,32.22-38.43,55.21-84.86,65.57-135.87,4.03-19.82,6.15-40.34,6.16-61.35-3.4-.11-6.82-.17-10.25-.17ZM430.4,70.47c-24.56,82.25-91.01,146.45-174.6,167.82,24.2-82.78,90.74-147.47,174.6-169.05.14-.03.26-.07.39-.1-.13.44-.25.89-.39,1.33Z"/>
</svg>