<?xml version="1.0" encoding="UTF-8"?>
<svg id="Layer_1" data-name="Layer 1" xmlns="http://www.w3.org/2000/svg" viewBox="0 0 1451.85 476.76">
  <defs>
    <style>
      .cls-1 {
        fill: #000;
      }

      .cls-1, .cls-2 {
        stroke-width: 0px;
      }

      .cls-2 {
        fill: #fff;
      }
    </style>
  </defs>
  <path class="cls-2" d="M508.5,0c-18.07,0-35.78,1.51-53.02,4.4-3.54.59-7.05,1.25-10.55,1.97-77.56,15.73-144.85,59.71-190.69,120.73-12.18,16.21-22.84,33.61-31.78,52-8.95-18.4-19.6-35.8-31.78-52C144.85,66.08,77.56,22.09,0,6.37v65.21c89.12,22.93,159.32,92.98,182.5,181.99,5.33,20.47,8.18,41.94,8.19,64.07v159.08s63.56,0,63.56,0v-158.91c0-1.47-.01-2.93-.02-4.39h.02s.04-.01.05-.01c76.15-12.78,143.11-52.65,190.64-109.35,33.31-39.73,57.08-87.73,67.79-140.46,4.17-20.49,6.36-41.7,6.37-63.42C515.58.06,512.05,0,508.5,0ZM444.71,72.27c-25.39,85.03-94.09,151.4-180.5,173.49,25.01-85.57,93.8-152.46,180.5-174.76.14-.04.27-.07.4-.11-.13.46-.26.92-.4,1.38Z"/>
  <g>
    <path class="cls-1" d="M631.89,33.36v178.38h-32.17V33.36h-42.69V.1h117.26v33.26h-42.4Z"/>
    <path class="cls-1" d="M795.93,211.73l-13.16-38.09h-74.28l-13.16,38.09h-34.22L734.23.1h22.81l73.11,211.63h-34.22ZM771.37,140.38l-25.73-74.38-25.44,74.38h51.17Z"/>
    <path class="cls-1" d="M978.7,178.47v33.26h-120.77V.1h32.17v178.38h88.61Z"/>
    <path class="cls-1" d="M1038.65,33.36v55.93h88.61v33.26h-88.61v55.93h88.61v33.26h-120.77V.1h120.77v33.26h-88.61Z"/>
    <path class="cls-1" d="M1281.95,211.73l-85.97-138.47v138.47h-32.17V.1h24.86l85.97,138.47V.1h32.17v211.63h-24.86Z"/>
    <path class="cls-1" d="M1409.45,33.36v178.38h-32.17V33.36h-42.69V.1h117.26v33.26h-42.4Z"/>
  </g>
  <path class="cls-2" d="M675.99,265.13c19.59,0,35.68,5.14,47.08,15.72,11.99,10.88,18.13,26.61,18.13,45.35s-5.85,33.86-17.25,44.75c11.4,10.88,17.25,26,17.25,44.44s-6.14,34.77-18.13,45.65c-11.4,10.58-27.49,15.72-47.08,15.72h-77.79v-211.63h77.79ZM630.38,354.32h45.62c11.4,0,20.47-2.72,25.73-7.56,4.97-4.23,7.31-11.18,7.31-20.56s-2.34-16.02-7.31-20.26c-5.26-5.14-14.33-7.56-25.73-7.56h-45.62v55.93ZM630.38,443.5h45.62c11.4,0,20.47-2.72,25.73-7.56,4.97-4.23,7.31-11.18,7.31-20.56s-2.34-16.02-7.31-20.26c-5.26-5.14-14.33-7.56-25.73-7.56h-45.62v55.93Z"/>
  <path class="cls-2" d="M886.25,476.76l-13.16-38.09h-74.28l-13.16,38.09h-34.22l73.11-211.63h22.81l73.11,211.63h-34.22ZM861.69,405.41l-25.73-74.38-25.44,74.38h51.17Z"/>
  <path class="cls-2" d="M1066.39,476.76l-85.97-138.47v138.47h-32.17v-211.63h24.86l85.97,138.47v-138.47h32.17v211.63h-24.86Z"/>
  <path class="cls-2" d="M1281.32,476.76h-37.14l-51.76-92.51-32.46,43.23v49.28h-32.17v-211.63h32.17v107.93l80.71-107.93h40.65l-67.84,90.7,67.84,120.93Z"/>
</svg>